<svg width="66" height="61" viewBox="0 0 66 61" fill="none" xmlns="http://www.w3.org/2000/svg">
<path d="M18.4064 0C19.4612 0.657993 20.6597 1.16417 21.5428 2.00281C23.9361 4.27626 23.8055 7.16983 21.3757 9.4728C21.1788 9.65936 21.0394 9.90672 20.7428 10.2982C21.2284 10.25 21.4977 10.2416 21.7596 10.1944C23.7048 9.84175 25.5943 9.83793 27.3863 10.8677C27.8052 11.1084 28.3416 11.2481 28.8263 11.2543C33.4027 11.3148 37.9913 11.5482 42.5521 11.2957C45.669 11.123 48.7467 10.2545 51.8432 9.70244C54.1833 9.2852 56.5207 9.20669 58.8393 9.83724C60.8174 10.375 62.436 11.4958 63.0912 13.4433C63.8333 15.6494 64.6066 17.9506 64.7108 20.2407C64.8689 23.702 64.5483 27.1966 64.253 30.662C64.1123 32.3118 64.1727 33.7932 65.0291 35.2631C65.8691 36.7048 65.5933 37.7595 64.4343 38.7239C63.876 39.1888 63.4105 39.1672 62.8873 38.683C61.6936 37.5778 61.8388 36.2177 62.0837 34.8163C62.5375 32.2163 63.1829 29.6267 63.3566 27.0069C63.5557 24.0049 63.373 20.9731 63.2566 17.9579C63.2264 17.1731 62.8248 16.4029 62.4537 15.6845C62.6524 17.3795 62.8091 19.0811 63.0593 20.7685C63.514 23.8375 62.8953 26.7838 62.1602 29.7288C61.7943 31.1942 61.3639 32.6589 61.1846 34.1503C61.0644 35.1522 61.152 36.2626 61.474 37.2134C61.8993 38.4676 61.7672 39.5181 61.3014 40.7254C60.5211 42.7469 59.812 44.8231 59.3729 46.9384C59.1283 48.1158 59.5181 49.4182 59.5643 50.6661C59.5834 51.18 59.647 51.9234 59.3552 52.1774C57.9947 53.3624 58.0079 54.7847 58.3953 56.3035C56.4046 57.8665 54.1461 57.9329 52.1996 56.4588C53.008 55.1411 53.8213 53.8161 54.6683 52.4355C54.1795 52.2687 53.6469 52.087 53.1199 51.9074C54.3664 49.1657 56.0809 46.7248 56.1107 43.6116C56.1319 41.3938 55.6754 39.1058 54.3501 37.3385C54.1524 38.1288 54.0131 38.6781 53.8783 39.228C53.7831 39.6164 53.6942 40.0062 53.6024 40.3953C53.2047 40.2373 52.7992 40.0959 52.4119 39.9156C52.1642 39.8002 51.9432 39.6272 51.6028 39.4122C51.5117 40.0285 51.4409 40.51 51.3405 41.1885C50.8621 40.931 50.4532 40.7115 50.0446 40.4905C49.7778 40.7942 49.511 41.0992 49.2397 41.4091C49.0601 41.3076 48.8631 41.2468 48.8641 41.1895C48.8971 39.1711 46.9968 38.8066 45.9066 37.763C45.7242 37.5883 45.2208 37.5243 45.0002 37.648C42.2192 39.2082 39.218 39.5775 36.1014 39.3962C36.0319 39.392 35.9582 39.4674 35.7842 39.5605C35.8891 40.0542 35.9801 40.584 36.1156 41.102C37.1568 45.0808 38.2112 49.0559 39.2524 53.0348C39.736 54.8826 39.5751 55.3562 38.1806 56.1413C38.3877 57.3475 38.8376 58.6472 37.82 59.7665C37.6029 60.0052 37.4292 60.3964 37.1689 60.4652C35.2127 60.9821 33.2404 61.4122 31.2161 60.3161C31.3419 60.0278 31.3867 59.7043 31.5722 59.5362C32.875 58.355 33.3322 56.7097 33.9655 55.1776C34.9716 52.7436 34.7666 50.2756 33.6323 47.9692C32.3024 45.2646 30.7745 42.6573 29.3877 40.1094C27.6451 40.3512 26.006 40.5788 24.5104 40.7865C24.1029 43.6627 23.6547 46.5862 23.292 49.5204C23.1746 50.4702 23.2003 51.4561 23.3056 52.4098C23.4126 53.3794 23.7062 54.2514 22.5562 54.917C22.2359 55.1025 22.2342 56.0673 22.3005 56.6503C22.5705 59.0175 22.1456 59.5727 19.777 59.4327C18.6236 59.3646 17.4841 59.0609 16.1041 58.8236C16.5064 58.0479 16.7649 57.4493 17.1082 56.9035C19.9402 52.4004 20.9147 47.5686 19.8516 42.3207C19.5706 40.9331 19.622 39.4803 19.3833 38.0809C19.1839 36.9112 18.9529 35.6935 18.4405 34.6409C16.7872 31.2442 14.965 27.93 13.2814 24.5476C12.817 23.6141 12.3368 23.4234 11.4218 23.876C9.29632 24.928 7.35778 24.0442 5.62247 22.9505C5.15625 22.6566 5.08572 21.3219 5.24796 20.5524C5.43904 19.6449 6.13177 18.8549 6.51253 17.9732C6.91483 17.0411 7.20526 16.0611 7.62493 14.8757C4.79807 14.9122 2.23905 15.4114 0 13.8679C0 13.5316 0 13.1956 0 12.8593C1.9038 10.201 4.45309 9.23761 7.71109 10.0099C7.43177 9.69688 7.16983 9.53534 6.89364 9.40471C3.88195 7.98033 2.78796 4.87206 4.25472 1.5286C4.4649 1.04987 5.23823 0.818148 5.75066 0.472129C5.76803 0.971008 5.90283 1.5015 5.7795 1.96321C5.47412 3.1041 5.7048 4.0831 6.58653 4.8071C7.44914 5.51547 8.39653 6.32875 9.63122 5.88928C12.5974 4.8342 15.615 5.13227 18.6427 5.38727C19.0307 5.41993 19.4257 5.37094 19.8176 5.35983C19.7874 4.92279 19.9065 4.38917 19.6984 4.06747C19.1346 3.19512 18.5002 2.34258 17.7606 1.61823C17.2249 1.09399 16.989 0.662509 17.3969 0.00104218C17.7342 -4.2385e-08 18.0701 0 18.4064 0Z" fill="#4BC553"/>
</svg>
