<svg width="99" height="65" viewBox="0 0 99 65" fill="none" xmlns="http://www.w3.org/2000/svg">
<path d="M21.5584 56.5843C21.5838 52.2553 18.1001 48.7254 13.7774 48.7C9.45472 48.6747 5.92999 52.1635 5.90468 56.4925C5.87937 60.8216 9.36307 64.3515 13.6857 64.3768C18.0084 64.4022 21.5331 60.9134 21.5584 56.5843Z" fill="#4BC553"/>
<path d="M38.6165 55.4832H29.2883V60.4738H38.6165V55.4832Z" fill="#4BC553"/>
<path d="M35.6349 25.7923H26.1195C24.1146 25.7923 22.3292 27.063 21.6705 28.9594L19.3629 35.6031C18.9359 36.9352 18.2022 37.7896 16.9084 38.0612L3.85525 40.1669C1.69211 40.5371 0.110107 42.4149 0.110107 44.6128V59.9186H4.55182C3.79068 57.9616 3.56549 55.7338 4.34196 53.3549C5.49456 49.8249 8.55525 47.0984 12.2237 46.5511C18.3548 45.6377 23.6238 50.3697 23.6238 56.3344C23.6238 57.6019 23.3639 58.8039 22.9305 59.9178H26.8613V52.2394H38.6173V28.7783C38.6165 27.1293 37.2823 25.7923 35.6349 25.7923ZM34.4315 35.9127C34.4315 36.4833 33.99 36.9562 33.4217 36.995L24.661 37.5908C24.1485 37.6255 23.7586 37.1365 23.9055 36.6434L25.9363 29.8477C26.105 29.2827 26.624 28.8963 27.2124 28.8963H33.4403C33.9867 28.8963 34.4307 29.3401 34.4307 29.8881V35.9127H34.4315Z" fill="#4BC553"/>
<path d="M91.5215 48.8112V48.7005H90.3374L98.8907 36.4219L59.8314 9.13255L64.8922 1.86806L62.2181 0L57.1573 7.26449L57.1323 7.24671L45.7258 23.6203L54.8352 29.9843L44.4803 44.8496L47.1536 46.7176L57.5085 31.8532L81.6219 48.7005H41.6836V53.8196H63.9414C63.6258 54.67 63.4289 55.5786 63.4289 56.5389C63.4289 60.8683 66.9335 64.3773 71.2557 64.3773C75.5788 64.3773 79.0826 60.8675 79.0826 56.5389C79.0826 55.5786 78.8857 54.67 78.5701 53.8196H83.1086C82.793 54.67 82.5961 55.5786 82.5961 56.5389C82.5961 60.8683 86.0999 64.3773 90.423 64.3773C94.7452 64.3773 98.2498 60.8675 98.2498 56.5389C98.2515 52.5861 95.3199 49.3495 91.5215 48.8112Z" fill="#4BC553"/>
</svg>
