<svg width="218" height="61" viewBox="0 0 218 61" fill="none" xmlns="http://www.w3.org/2000/svg">
<g clip-path="url(#clip0)">
<path fill-rule="evenodd" clip-rule="evenodd" d="M119.03 0C117.07 11.4467 111.444 17.5067 108.01 27.8593C105.755 34.6347 106.703 40.7999 107.209 49.4481C113.061 42.7802 117.044 34.6865 118.756 25.9865L120.104 17.0648C119.683 33.7089 118.629 38.7378 110.285 50.3318C106.525 54.3694 101.544 57.0669 96.1045 58.0121L96.5259 59.464C99.5814 58.9315 102.551 57.9902 105.355 56.6654C107.865 55.423 110.249 53.9434 112.477 52.2466C113.636 51.5312 114.837 50.4791 115.848 49.7216L116.417 49.3639C123.307 44.1876 126.952 38.0855 127.732 30.4264C128.68 19.2532 123.37 9.86858 119.03 0Z" fill="url(#paint0_linear)"/>
<path d="M99.792 31.8572C97.2499 29.6648 93.9598 28.5345 90.6051 28.7009C86.5326 28.7301 82.5596 29.9599 79.1846 32.2359C75.5815 34.5716 71.1566 39.5585 65.6149 47.4491L65.046 48.2697C62.0329 52.0152 58.7247 53.9089 55.5009 53.9089C54.1723 53.931 52.8579 53.6327 51.6694 53.0393C50.4809 52.4458 49.4533 51.5748 48.6739 50.5002C46.8222 48.1544 45.8463 45.238 45.9136 42.2518C45.8416 39.8882 46.6442 37.5809 48.1682 35.7709C48.7374 35.0186 49.4682 34.4032 50.3069 33.9699C51.1455 33.5366 52.0707 33.2964 53.0145 33.267C56.1119 33.267 58.4087 35.3711 60.0733 39.3901L60.4947 40.4422L61.5061 39.9372C62.6514 39.4001 63.6609 38.6125 64.4597 37.6326C65.2586 36.6527 65.8262 35.5058 66.1206 34.277L66.226 33.8351L65.9731 33.4563C64.8432 31.7984 63.2961 30.4667 61.4875 29.595C59.6788 28.7233 57.6722 28.3424 55.6694 28.4905C52.6593 28.5614 49.7332 29.4964 47.2411 31.1838C44.4597 32.9513 40.0348 38.317 33.7557 47.5754L33.4607 47.9962C32.0552 49.6634 30.3818 51.0856 28.509 52.2045C26.7244 53.3805 24.6596 54.0629 22.5248 54.1825C21.2493 54.3291 19.9578 54.1266 18.7886 53.5965C17.6194 53.0665 16.6166 52.2289 15.8875 51.1735C25.2641 45.8499 29.8154 40.5053 29.8154 34.8241C29.84 33.9503 29.6736 33.0816 29.3279 32.2786C28.9822 31.4755 28.4655 30.7573 27.8136 30.1738C26.4622 28.9819 24.7063 28.3497 22.9041 28.4063C19.3452 28.5032 15.9349 29.852 13.2747 32.2149C8.47853 36.7819 4.23535 41.8949 0.632128 47.4491L0 48.396L3.81384 51.0472L4.40383 50.1635C4.74096 49.6585 5.16238 49.0693 5.66808 48.396C5.52843 51.7656 6.72464 55.0545 8.99729 57.5491C10.1775 58.6969 11.5816 59.59 13.1221 60.1728C14.6627 60.7556 16.3069 61.0157 17.9524 60.9369C22.1513 61.1182 26.3178 60.1273 29.984 58.0752C33.2371 55.8377 35.9506 52.9051 37.9277 49.4902L38.4123 48.8379C38.6742 51.8064 39.9028 54.6075 41.9101 56.8127C43.1199 58.0866 44.5873 59.0888 46.2149 59.7527C47.8425 60.4167 49.5929 60.7271 51.3499 60.6633C59.0619 60.6633 65.4253 56.7706 70.3137 49.0904L70.5666 48.7116C70.5666 48.922 70.5666 49.1324 70.5666 49.3429C70.5208 50.8979 70.7923 52.4461 71.3647 53.893C71.937 55.34 72.7982 56.6555 73.8958 57.7596C75.0602 58.8604 76.4343 59.7164 77.9365 60.2767C79.4387 60.837 81.0382 61.0901 82.6403 61.021C85.3492 61.022 88.0289 60.4615 90.5098 59.3749C92.9906 58.2883 95.2186 56.6993 97.0528 54.7085C98.9738 52.8892 100.511 50.705 101.575 48.284C102.639 45.863 103.208 43.2541 103.248 40.6105C103.327 38.9901 103.06 37.3714 102.464 35.8622C101.868 34.3529 100.957 32.9876 99.792 31.8572ZM86.6859 54.7085C81.1442 54.7085 78.5736 51.7206 78.5736 45.3028C78.3808 42.2561 79.2521 39.237 81.0389 36.7599C81.8083 35.8013 82.793 35.037 83.9131 34.5289C85.0332 34.0208 86.2574 33.7831 87.4866 33.8351C88.6271 33.7803 89.7662 33.9698 90.8274 34.3908C91.8886 34.8117 92.8473 35.4545 93.6393 36.2759C95.2932 38.2072 96.1317 40.7042 95.9782 43.2408C96.1303 46.2598 95.221 49.2371 93.4075 51.6575C92.6053 52.6569 91.5789 53.4539 90.4112 53.9839C89.2436 54.5139 87.9674 54.7621 86.6859 54.7085ZM19.8699 33.9193C20.241 33.8951 20.6126 33.9566 20.9561 34.0989C21.2995 34.2412 21.6056 34.4605 21.8506 34.7399C22.3959 35.4007 22.674 36.2414 22.6302 37.0966C22.6302 40.5264 19.7224 43.7878 14.0122 46.7968L13.8225 46.2918C13.5006 45.1634 13.3514 43.9929 13.38 42.8199C13.3434 40.5578 14.038 38.3442 15.3607 36.5074C15.8373 35.7354 16.4993 35.0944 17.2867 34.6424C18.0741 34.1905 18.962 33.9419 19.8699 33.9193Z" fill="#222220"/>
<path d="M160.792 43.851C160.838 46.2244 160.576 48.5938 160.012 50.9C159.506 52.805 158.594 54.578 157.336 56.0973C156.165 57.5097 154.688 58.639 153.017 59.4008C151.325 60.1745 149.484 60.5695 147.623 60.5581C146.566 60.5899 145.513 60.4111 144.525 60.0321C143.507 59.5523 142.563 58.9287 141.723 58.1804C141.488 58.8178 141.153 59.4142 140.733 59.9479C140.622 60.066 140.488 60.1605 140.339 60.2256C140.191 60.2907 140.031 60.3251 139.869 60.3267H139.51H139.026L133.189 59.3798C132.557 59.2535 132.367 58.8538 132.662 58.1804C132.957 57.5071 133.021 57.2546 133.168 56.8338C133.317 56.3861 133.437 55.9292 133.526 55.466C133.633 54.9235 133.711 54.3756 133.758 53.8248C133.794 53.1239 133.794 52.4215 133.758 51.7206V23.8613H131.23C131.002 23.8845 130.772 23.8328 130.576 23.7141C130.502 23.6283 130.446 23.5277 130.413 23.4188C130.381 23.31 130.372 23.1954 130.387 23.0828V17.654C130.387 17.149 130.661 16.8755 131.23 16.8755H142.186C142.734 16.8755 143.029 17.128 143.029 17.654V31.2891C144.959 29.9586 147.238 29.2266 149.582 29.1849C151.195 29.0742 152.81 29.3663 154.282 30.0349C155.753 30.7035 157.035 31.7275 158.011 33.0145C160.063 36.2415 161.037 40.0359 160.792 43.851ZM151.921 44.2718C152.078 41.9767 151.665 39.6785 150.72 37.5806C150.437 36.9612 149.984 36.4347 149.413 36.0622C148.843 35.6898 148.178 35.4866 147.496 35.4764C146.782 35.455 146.07 35.5546 145.389 35.771C144.526 36.0945 143.711 36.5333 142.966 37.0756V52.9621C143.475 53.2952 144.038 53.5372 144.631 53.6775C145.195 53.8244 145.775 53.9021 146.359 53.909C147.184 53.9022 147.993 53.669 148.695 53.2349C149.397 52.8007 149.967 52.1823 150.341 51.4471C151.487 49.2051 152.025 46.702 151.9 44.1877L151.921 44.2718Z" fill="#222220"/>
<path d="M192.019 59.4219C191.824 59.5421 191.594 59.5939 191.366 59.5692H183.191C182.96 59.6004 182.726 59.6004 182.495 59.5692C182.348 59.5692 182.2 59.3588 182.053 59.0432C181.962 58.8092 181.885 58.5704 181.821 58.3278C181.821 58.0542 181.652 57.7386 181.526 57.3809C180.517 58.3722 179.34 59.1772 178.049 59.7586C176.81 60.2531 175.485 60.4963 174.151 60.474C172.874 60.5468 171.594 60.3668 170.386 59.9443C169.179 59.5218 168.066 58.8652 167.113 58.0121C166.238 57.1268 165.557 56.0688 165.115 54.9057C164.672 53.7427 164.477 52.5002 164.543 51.2577C164.465 49.4421 164.919 47.6433 165.849 46.0815C166.776 44.6818 168.075 43.5671 169.6 42.8621C171.015 42.1795 172.518 41.6979 174.067 41.4312C175.92 41.1313 177.795 40.9905 179.672 41.0104H180.199V39.2219C180.279 38.3534 180.022 37.4874 179.482 36.8021C178.574 36.1868 177.473 35.9248 176.385 36.0656C175.329 36.0902 174.28 36.2529 173.266 36.5496C171.957 36.9101 170.669 37.3457 169.41 37.8541C169.173 37.8986 168.931 37.8986 168.694 37.8541C168.483 37.8541 168.336 37.6648 168.209 37.3491L166.608 32.5937C166.502 32.3264 166.459 32.0385 166.481 31.752C166.481 31.6047 166.755 31.4154 167.198 31.226C168.716 30.4792 170.334 29.9548 172.002 29.6689C173.864 29.3166 175.754 29.1405 177.649 29.1429C179.235 29.1219 180.816 29.3202 182.348 29.732C183.634 30.0744 184.833 30.6839 185.867 31.5206C186.958 32.3696 187.766 33.5286 188.184 34.8452C188.561 36.2155 188.738 37.6328 188.711 39.0535V49.4692C188.673 50.0718 188.673 50.6762 188.711 51.2788C188.711 51.7417 188.859 52.2467 188.985 52.7938H191.261C191.809 52.7938 192.104 53.0463 192.104 53.5723V58.8748C192.144 59.0614 192.114 59.256 192.019 59.4219ZM180.22 46.5444H179.63C177.794 46.3908 175.952 46.7631 174.32 47.6175C173.809 47.9648 173.398 48.4379 173.125 48.9909C172.851 49.5439 172.726 50.1581 172.761 50.7738C172.74 51.2626 172.816 51.7506 172.986 52.2095C173.156 52.6683 173.416 53.0887 173.751 53.4461C174.052 53.7689 174.418 54.0254 174.824 54.1993C175.231 54.3732 175.669 54.4607 176.111 54.4561C176.923 54.4263 177.719 54.2231 178.446 53.8601C179.173 53.4972 179.814 52.9829 180.325 52.3519L180.22 46.5444Z" fill="#222220"/>
<path d="M218 30.7629C218.089 30.8431 218.152 30.9478 218.182 31.0638C218.212 31.1798 218.207 31.302 218.168 31.4152L217.937 32.0675L215.829 37.3701C215.64 37.8961 215.324 38.0434 214.923 37.854L213.701 37.2859C213.198 37.0903 212.661 36.9973 212.121 37.0123C211.498 37.0082 210.885 37.1757 210.351 37.4963C209.575 38.025 208.868 38.6469 208.244 39.348V52.6043H210.983C211.545 52.6043 211.826 52.8638 211.826 53.3828V58.8116C211.841 58.9194 211.834 59.0291 211.805 59.1341C211.776 59.239 211.726 59.3369 211.657 59.4218C211.461 59.5405 211.232 59.5922 211.004 59.5691H196.613C196.391 59.5996 196.166 59.5472 195.981 59.4218C195.862 59.2417 195.81 59.0259 195.833 58.8116V53.3828C195.795 53.2742 195.788 53.157 195.813 53.0447C195.839 52.9324 195.896 52.8296 195.977 52.7482C196.059 52.6668 196.162 52.61 196.274 52.5846C196.387 52.5591 196.504 52.5659 196.613 52.6043H199.057V40.4632C199.057 40.0283 199.057 39.5093 199.057 38.9061C199.017 38.3056 198.94 37.7083 198.825 37.1175H196.191C196.079 37.1313 195.964 37.1216 195.855 37.089C195.747 37.0564 195.646 37.0017 195.559 36.9282C195.443 36.7314 195.391 36.5034 195.412 36.2759V30.9313C195.391 30.7038 195.443 30.4757 195.559 30.279C195.646 30.2055 195.747 30.1507 195.855 30.1181C195.964 30.0855 196.079 30.0758 196.191 30.0896H204.62C204.854 30.077 205.087 30.1246 205.297 30.2277C205.507 30.3309 205.688 30.4862 205.821 30.6788C206.281 31.5031 206.642 32.3789 206.895 33.288L207.422 32.6357C208.247 31.5424 209.278 30.6203 210.456 29.9213C211.523 29.3705 212.711 29.0956 213.912 29.1217C214.725 29.1118 215.533 29.2545 216.293 29.5425C216.956 29.7991 217.543 30.2189 218 30.7629Z" fill="#222220"/>
</g>
<defs>
<linearGradient id="paint0_linear" x1="130.05" y1="29.732" x2="96.1466" y2="29.732" gradientUnits="userSpaceOnUse">
<stop stop-color="#9BBD44"/>
<stop offset="1" stop-color="#487F3D"/>
</linearGradient>
<clipPath id="clip0">
<rect width="218" height="61" fill="white"/>
</clipPath>
</defs>
</svg>
