<svg width="84" height="38" viewBox="0 0 84 38" fill="none" xmlns="http://www.w3.org/2000/svg">
<path d="M0 28.8075C0 28.4022 0 27.9973 0 27.592C0.168345 27.1329 0.599865 26.7514 0.37236 26.1732C0.319725 26.0388 0.424125 25.8376 0.47067 25.6712C0.567675 25.3235 0.673815 24.9789 0.77691 24.633C2.37032 19.2746 4.09379 13.9618 6.35361 8.83704C7.29408 6.70384 8.31851 4.61572 9.71181 2.72961C10.7154 1.37105 11.9277 0.33371 13.6851 0.0861871C14.9849 -0.0967455 16.2616 0.0302668 17.5327 0.291228C19.9491 0.787573 22.2176 1.70744 24.4453 2.73047C29.5804 5.08996 34.4185 7.99174 39.274 10.8571C43.085 13.106 46.5037 15.8912 49.9015 18.7037C50.9363 19.5603 52.0308 20.3596 53.167 21.0771C54.0927 21.6618 54.6665 21.3562 54.9653 20.2911C54.9883 20.2083 54.9966 20.1212 55.0123 20.0362C55.2198 18.9139 54.9662 17.8202 54.7852 16.7261C54.4263 14.5587 54.0622 12.3956 54.1083 10.1843C54.1584 7.78973 54.7717 5.59194 56.2664 3.68112C56.8876 2.88696 57.6184 2.20595 58.5001 1.7044C58.9651 1.43998 59.4488 1.54921 59.7359 1.94586C60.0283 2.34987 59.9704 2.82021 59.5376 3.17393C59.1474 3.49255 59.0412 3.91303 59.0369 4.36906C59.0217 6.05447 59.4275 7.65752 60.0352 9.21635C60.3641 10.0604 60.813 10.835 61.4868 11.4566C63.5957 13.4017 65.2583 15.609 65.7089 18.5203C66.2944 18.6395 66.8869 18.7163 67.4524 18.8832C69.6914 19.5434 71.5114 20.8855 73.2331 22.4048C74.3502 23.3906 75.4825 24.3785 76.7105 25.2164C78.4401 26.3964 80.371 26.8576 82.466 26.3002C82.9915 26.1602 83.4121 26.3379 83.6214 26.7449C83.8389 27.168 83.7097 27.5954 83.259 27.9587C82.379 28.6683 81.3868 29.172 80.3128 29.5089C77.0489 30.5328 73.7251 30.5393 70.4156 29.8682C68.8649 29.5539 67.3711 28.9488 65.8642 28.4373C64.6654 28.0302 63.4465 27.7094 62.2011 28.0519C61.4433 28.2604 60.7169 28.6336 60.0261 29.0203C57.6358 30.3585 55.2929 31.7825 52.8847 33.0873C47.4546 36.0285 41.6539 37.5995 35.4486 37.4729C32.5902 37.4144 29.7327 37.2475 26.8791 37.0642C25.0564 36.9471 23.2342 36.7607 21.4246 36.5132C18.8546 36.1616 16.2899 35.7637 13.7351 35.3155C10.751 34.7922 7.78911 34.1537 4.92377 33.1497C3.52611 32.6599 2.09583 32.1692 1.18798 30.8965C0.72471 30.2475 0.3915 29.5067 0 28.8075Z" fill="#4BC553"/>
</svg>
