<svg width="92" height="98" viewBox="0 0 92 98" fill="none" xmlns="http://www.w3.org/2000/svg">
<path d="M46.4513 0.531586C46.1655 0.813988 35.8898 10.2161 23.6206 21.4123L1.31643 41.7781L0.661979 49.9759C0.300899 54.486 0.00752249 58.3399 0.00752249 58.5392L0 58.9047L1.78283 60.9313C2.76827 62.0526 3.89665 63.34 4.28782 63.7968L5.00245 64.6357L7.33442 62.4678C8.62077 61.2801 9.66639 60.3083 9.67392 60.3166C9.67392 60.325 9.65887 67.8085 9.62878 76.9448C9.59869 86.1559 9.59869 93.7557 9.6363 94.0049C9.89959 95.8571 11.0731 97.3605 12.6303 97.8671C13.0064 97.9917 16.0229 98 45.6991 98C75.5107 98 78.3918 97.9917 78.7679 97.8671C80.0994 97.4269 81.0924 96.3638 81.5588 94.8853C81.8296 94.0132 81.8221 94.1046 81.9575 87.244C82.0252 84.1376 82.1079 80.1176 82.1455 78.3153C82.1832 76.5129 82.2509 73.39 82.296 71.38C82.3411 69.37 82.4088 66.3217 82.4464 64.6107C82.4841 62.8997 82.5217 61.2967 82.5217 61.0559V60.624L84.8311 62.9081C86.1024 64.1622 87.163 65.1589 87.1931 65.1257C87.2232 65.0925 88.314 63.6223 89.6229 61.8532L92 58.6306L91.7066 57.202C91.5411 56.4129 91.2402 54.9428 91.0296 53.9378C90.8265 52.9328 90.4805 51.2799 90.2774 50.2583C90.0667 49.245 89.7207 47.5839 89.5101 46.5623C88.472 41.4874 88.5547 41.8363 88.2914 41.5456C87.479 40.6568 47.1208 -0.00828552 47.0607 1.52588e-05C47.0155 1.52588e-05 46.7447 0.240883 46.4513 0.531586Z" fill="#4BC553"/>
<path d="M46.8192 40.0361C44.4743 40.0525 42.274 40.0755 41.9313 40.0853L41.3098 40.1083L41.5786 40.1969C42.489 40.502 43.2482 40.945 44.0611 41.6374C44.7968 42.2641 45.5527 43.1927 46.2615 44.3411C46.6076 44.9022 50.3365 51.6124 50.3163 51.6419C50.3096 51.655 49.7049 52.0422 48.9726 52.5016L47.6422 53.3383L48.5728 53.358C49.0868 53.3711 50.9949 53.3875 52.8157 53.4006C54.6365 53.4105 56.4203 53.4302 56.7797 53.44L57.4348 53.4564L59.9644 49.3778C61.3552 47.1335 62.531 45.2336 62.5814 45.1549L62.6687 45.0105L62.2858 45.2074C62.0741 45.3189 61.5467 45.588 61.1133 45.8078C60.68 46.0277 60.1559 46.2967 59.951 46.4017L59.5815 46.592L58.5199 44.6824C57.9354 43.6324 57.4214 42.6972 57.3744 42.6053C57.2299 42.3264 56.9007 41.867 56.6454 41.598C55.95 40.863 55.0329 40.338 53.9915 40.0788C53.7059 40.0066 52.4797 40 46.8192 40.0361Z" fill="white"/>
<path d="M39.395 40.4495C38.7064 40.5349 37.9572 40.8827 37.4063 41.3683C37.235 41.5192 32.337 48.8856 32.3807 48.925C32.3941 48.9414 34.4769 50.1489 37.0065 51.6124C39.6839 53.1611 41.6189 54.2636 41.6357 54.2472C41.6525 54.2308 42.7678 52.4622 44.1183 50.3163L46.5673 46.4181L46.3153 45.9522C44.6625 42.8678 42.4218 40.8006 40.386 40.4758C40.0938 40.4299 39.6403 40.4167 39.395 40.4495Z" fill="white"/>
<path d="M59.1951 56.3603C56.6924 57.8533 54.6264 59.0903 54.5995 59.1166C54.5592 59.1527 54.8985 59.7827 56.7898 63.205L59.0271 67.2508H60.0954C60.9017 67.2475 61.2813 67.2344 61.6508 67.1884C63.1558 67.0113 64.2778 66.7094 65.3293 66.2008C65.9542 65.8989 66.3875 65.6134 66.7974 65.2361C67.6271 64.4749 68.0538 63.4544 67.99 62.3781C67.9463 61.6759 68.0571 61.922 66.0012 57.9649C64.9699 55.9797 64.0427 54.198 63.9352 54.0044L63.7471 53.65L59.1951 56.3603Z" fill="white"/>
<path d="M30.6774 53.7878C28.7458 53.8009 26.7402 53.8239 26.2162 53.8403L25.2688 53.8633L26.6797 54.9395C27.4558 55.5334 28.0907 56.0322 28.0907 56.0486C28.0907 56.0683 27.449 57.2824 26.663 58.7491C25.8802 60.2158 25.2016 61.525 25.1546 61.6595C24.7246 62.9228 25.2587 64.3731 26.6159 65.6069C27.8119 66.693 29.0783 67.1425 31.4064 67.3C31.9573 67.3361 33.6437 67.3525 33.6941 67.3197C33.7109 67.3099 34.5776 65.9449 35.6157 64.2845L37.5037 61.2691L37.7623 61.4036C37.9034 61.4791 38.5383 61.8138 39.1766 62.1517C39.8149 62.4897 40.339 62.762 40.3457 62.7555C40.3524 62.7489 39.2405 60.7244 37.8765 58.2536L35.394 53.7648L34.7926 53.7616C34.4601 53.7616 32.609 53.7714 30.6774 53.7878Z" fill="white"/>
<path d="M50.0174 69.0949L47.6053 73.3441L48.4049 74.7747C48.8483 75.5655 49.9334 77.5047 50.8169 79.0863L52.4294 81.9639L52.4496 81.7277C52.463 81.5997 52.4899 80.9074 52.51 80.1953C52.5302 79.4833 52.5571 78.8139 52.5671 78.7089L52.5873 78.5186L55.1807 78.5252C57.4718 78.5285 57.8044 78.5219 58.0496 78.476C58.6913 78.3513 59.3968 78.0592 59.988 77.6786C60.4382 77.3866 61.063 76.773 61.3015 76.3891C61.4325 76.1824 66.737 66.506 67.0729 65.8628C67.1233 65.7677 67.0763 65.7972 66.784 66.0433C65.4806 67.1425 64.1402 67.6774 62.0036 67.9431C61.6207 67.9924 61.0294 68.0022 57.0922 68.012L52.6142 68.0252V67.8841C52.6142 67.6347 52.4798 65.223 52.4529 65.0294L52.4294 64.8424L50.0174 69.0949Z" fill="white"/>
<path d="M25.7054 65.6364C25.7054 65.6463 26.8879 67.7856 28.3291 70.3909C29.7736 72.993 31.1543 75.4867 31.3962 75.9264C31.8262 76.7106 31.843 76.7369 32.1554 77.0453C32.8374 77.718 33.8083 78.1675 35.0479 78.3874C36.0422 78.5645 36.0154 78.5645 40.3254 78.5777L44.35 78.5908V73.3113V68.0317L42.2604 68.0088C41.1082 67.9989 38.5954 67.9792 36.6738 67.9694C30.3615 67.9333 30.6303 67.9366 30.207 67.8775C28.4937 67.6281 27.0828 66.9686 25.9944 65.9022C25.8365 65.7447 25.7054 65.6266 25.7054 65.6364Z" fill="white"/>
</svg>
