<svg width="175" height="88" viewBox="0 0 175 88" fill="none" xmlns="http://www.w3.org/2000/svg">
<path d="M103.139 49.7741C99.3903 52.7286 100.954 62.3781 107.096 63.618C114.906 65.1946 119.752 69.1506 117.638 71.1704C115.823 72.9037 112.461 73.6314 105.892 70.0371C101.073 67.4005 98.4672 87.4794 118.149 82.7582C121.006 82.0724 125.796 79.7013 127.893 76.0171C129.859 72.565 130.493 69.9911 128.542 65.895C126.723 62.0164 122.886 60.3541 119.654 59.6495C117.91 58.9428 113.15 59.4174 111.802 58.0353C107.55 54.4996 119.997 55.614 120.724 53.4897C121.864 50.1463 110.914 43.6498 103.139 49.7741Z" fill="#4BC553"/>
<path d="M174.181 51.426C174.277 41.8601 168.265 39.5287 161.405 40.5888C156.069 41.4126 145.64 48.4402 148.996 59.6244C150.064 63.1831 152.553 66.4366 155.82 68.4731C161.495 72.013 171.772 68.7408 174.15 61.7237C176.14 55.8482 169.551 62.7169 164.594 62.5496C162.471 62.4785 160.545 61.9934 159.588 60.3186C159.203 59.6474 158.937 57.4206 161.569 57.0986C166.048 56.5487 171.617 53.6716 174.181 51.426ZM158.159 53.0861C157.041 48.4757 164.583 41.099 169.287 49.2305C166.634 51.0935 163.821 51.6351 158.159 53.0861Z" fill="#4BC553"/>
<path d="M94.1257 57.7175C93.7405 58.213 93.4244 58.7128 93.1649 59.225C92.361 58.5957 91.442 58.0416 90.3996 57.5858C87.9022 56.5528 82.3779 56.672 79.1395 59.0787C74.0694 62.8507 73.3305 73.0878 77.894 78.568C80.4646 81.6563 88.1053 84.3682 93.0434 78.5994C93.4977 78.0683 94.0629 77.6418 94.5046 77.1044C95.591 79.8853 97.339 82.8398 100.119 77.05C101.588 73.9889 95.8862 55.4572 94.1257 57.7175ZM88.413 74.704C85.6707 75.9565 83.5983 75.4254 82.2251 74.0914C80.3746 72.289 81.2831 69.2593 82.4365 67.0722C83.3178 65.3995 87.0544 62.5809 90.7491 65.1988C94.3957 67.781 91.9423 73.2425 88.413 74.704Z" fill="#4BC553"/>
<path d="M28.3364 62.2088C28.9623 68.4105 34.0951 80.7636 40.3165 85.558C45.2149 89.3321 51.3191 88.295 53.0398 75.2624C54.7522 81.4117 57.0444 87.1157 64.505 86.1748C68.2772 85.6981 72.9139 71.6326 72.4346 63.1581C71.4423 45.6258 64.5574 52.6283 63.0334 57.8681C62.5792 59.4321 63.9377 71.114 60.0337 72.2243C57.955 72.8139 56.9586 55.7667 50.5425 57.038C47.7814 57.5837 47.2518 75.9775 43.9778 73.667C41.5809 71.9776 39.3934 63.3421 38.9412 60.1932C38.1897 54.9346 27.0239 49.1887 28.3364 62.2088Z" fill="#4BC553"/>
<path d="M133.093 62.2632C132.733 59.7812 132.677 54.6982 130.621 53.5942C128.567 52.4882 124.201 54.2696 124.82 50.46C125.455 46.8302 129.463 48.8416 130.797 44.9839C131.839 42.0399 128.783 40.0138 129.133 37.6887C129.421 35.7755 134.242 34.3307 135.787 35.832C137.317 37.1555 136.524 44.8605 137.265 45.7512C139.605 48.5677 145.167 45.5505 146.026 49.724C146.884 53.8974 138.452 50.6858 138.218 57.3349C138.163 60.3144 138.915 63.133 139.365 66.0352C139.788 68.7596 141.123 70.3947 142.651 70.1187C145.946 69.5207 150.953 66.8715 151.28 69.6629C151.705 73.0376 144.65 80.0693 138.463 80.1321C135.593 80.1613 134.138 69.9368 133.093 62.2632Z" fill="#4BC553"/>
<path d="M101.436 2.10144C96.4723 0.0502581 85.4928 0.284437 79.0579 5.07053C68.9827 12.5664 65.9536 34.4248 76.5815 43.8067C83.0185 49.4898 101.224 48.5531 106.69 43.8695C119.038 33.2895 119.84 10.1598 101.436 2.10144ZM98.1847 37.902C91.8419 40.7958 87.0481 39.5706 83.8767 36.4844C79.5959 32.3193 78.2687 24.7606 80.0711 19.3556C81.4548 15.2073 94.088 5.21689 103.59 15.9161C110.447 23.642 106.349 34.5189 98.1847 37.902Z" fill="#4BC553"/>
<path d="M45.5206 34.0359C45.6085 25.1641 40.034 23.0021 33.6723 23.9849C28.7237 24.7481 19.0525 31.2675 22.1632 41.6384C23.1533 44.9379 25.4623 47.9551 28.4913 49.8452C33.754 53.128 43.2849 50.0941 45.4892 43.5851C47.3355 38.1361 41.223 44.5051 36.6281 44.3503C34.6604 44.2834 32.8748 43.836 31.9851 42.2824C31.6292 41.6593 31.3822 39.5956 33.823 39.2966C37.9804 38.7885 43.1446 36.1205 45.5206 34.0359ZM30.6621 35.5748C29.6259 31.2989 36.6197 24.4574 40.9822 31.9972C38.5226 33.7285 35.9143 34.2303 30.6621 35.5748Z" fill="#4BC553"/>
<path d="M48.9097 32.3089C48.3989 30.149 48.0012 29.0491 49.0855 26.9582C50.4902 24.2568 52.9436 24.1418 53.6113 25.8856C57.4673 25.965 61.8507 18.8329 66.1295 20.3865C68.8236 21.365 69.2883 25.3043 69.146 26.4501C68.8969 28.4679 67.4399 30.5588 65.2084 31.1547C61.88 31.7339 60.9045 27.8615 57.3542 28.5808C52.5354 29.5593 59.2612 40.3798 60.2305 43.8549C61.9428 50.0063 55.106 48.4068 53.4355 45.5673C51.7671 42.7258 50.1113 37.3835 48.9097 32.3089Z" fill="#4BC553"/>
<path d="M20.0698 49.2556C19.8249 52.6868 12.5359 52.2958 9.61152 51.8212C7.61029 51.495 2.804 51.7877 1.50613 49.8704C-0.273199 47.2379 9.74759 38.6401 9.96739 38.0965C1.67779 38.2198 -0.463689 38.0024 0.312938 34.8681C1.44752 32.2127 5.90632 32.5953 8.77628 32.4322C10.4949 32.5535 15.0542 31.7192 16.3395 32.5598C21.554 35.4598 9.57593 43.1356 8.97096 45.8767C10.6393 46.3054 17.3694 45.1847 18.8829 45.5882C20.3985 45.9938 20.0845 48.9734 20.0698 49.2556Z" fill="#4BC553"/>
<path d="M73.0939 45.7513C75.0868 42.9641 102.991 10.3125 106.979 5.53477C110.964 0.75704 114.552 1.15431 110.169 5.93204C105.783 10.7098 77.8793 46.5459 75.0889 50.9263C72.2964 55.3068 73.0939 45.7513 73.0939 45.7513Z" fill="#4BC553"/>
<path d="M4.26721 74.4282C4.26721 74.4282 4.26721 64.3918 11.8032 61.8806C19.3392 59.3715 20.859 60.3271 20.859 60.3271C20.859 60.3271 20.231 67.5407 15.835 71.3044C11.439 75.0701 4.26721 74.4282 4.26721 74.4282Z" fill="#70E25C"/>
<path d="M20.3754 81.0646C20.3754 81.0646 16.172 75.2519 19.4878 70.6498C22.8037 66.0477 24.0827 65.9683 24.0827 65.9683C24.0827 65.9683 26.7392 70.4073 25.7678 74.4239C24.7986 78.4405 20.3754 81.0646 20.3754 81.0646Z" fill="#70E25C"/>
<path d="M17.6311 62.4493L23.0738 56.3167L23.3543 59.522L19.0274 64.6803L17.6311 62.4493Z" fill="#70E25C"/>
<path d="M132.013 27.9094C132.013 27.9094 132.013 13.0075 143.202 9.28154C154.391 5.55554 156.647 6.97527 156.647 6.97527C156.647 6.97527 155.716 17.6828 149.189 23.2718C142.662 28.8608 132.013 27.9094 132.013 27.9094Z" fill="#70E25C"/>
<path d="M126.995 27.9158C126.995 27.9158 117.803 21.8396 120.066 13.4341C122.331 5.02867 124.125 4.21948 124.125 4.21948C124.125 4.21948 130.351 9.15821 131.138 15.4539C131.923 21.7497 126.995 27.9158 126.995 27.9158Z" fill="#70E25C"/>
<path d="M128.333 25.8625C128.333 25.8625 124.404 30.8849 123.939 33.2142C123.472 35.5435 120.211 32.2837 120.211 32.2837L127.598 22.8579L128.333 25.8625Z" fill="#70E25C"/>
</svg>
