<svg width="806" height="149" viewBox="0 0 806 149" fill="none" xmlns="http://www.w3.org/2000/svg">
<g filter="url(#filter0_d)">
<path d="M20.6719 105.875C21.3229 104.964 22.1042 104.085 23.0156 103.238C23.9922 102.327 24.9036 101.448 25.75 100.602C33.1068 92.9193 41.4401 83.5117 50.75 72.3789C60.0599 61.2461 66.9935 48.4206 71.5508 33.9023C64.0638 35.5299 53.7122 37.1901 40.4961 38.8828C27.3451 40.5755 19.3372 40.1849 16.4727 37.7109C14.5195 36.0833 12.8268 33.0234 11.3945 28.5312C10.0273 23.974 11.7852 21.0117 16.668 19.6445C18.4258 19.1888 22.0391 18.5052 27.5078 17.5938C31.6094 16.9427 37.306 16.1289 44.5977 15.1523C47.6576 14.8268 50.75 14.4688 53.875 14.0781C57 13.6875 59.9948 13.3294 62.8594 13.0039C68.6536 12.418 73.569 11.7344 77.6055 10.9531C81.707 10.1719 86.3945 10.8555 91.668 13.0039C92.7096 13.3945 94.0117 13.9805 95.5742 14.7617C100.522 17.3659 103.387 20.2305 104.168 23.3555C105.014 26.4805 104.852 30.7122 103.68 36.0508C101.987 43.668 98.0807 53.401 91.9609 65.25C85.8411 77.0339 74.6758 91.1615 58.4648 107.633C76.8893 104.573 90.138 101.253 98.2109 97.6719C99.4479 97.151 100.717 96.5977 102.02 96.0117C103.387 95.3607 104.721 94.9049 106.023 94.6445C110.971 93.7982 113.706 96.2396 114.227 101.969C114.747 107.698 114.454 111.897 113.348 114.566C112.306 116.975 110.548 118.928 108.074 120.426C105.665 121.923 103.289 123.128 100.945 124.039C91.7656 127.88 80.9583 130.452 68.5234 131.754C56.1536 133.056 45.3464 133.316 36.1016 132.535C31.8698 132.21 28.5495 131.559 26.1406 130.582C22.5599 129.215 20.0859 125.406 18.7188 119.156C17.3516 112.906 18.0026 108.479 20.6719 105.875ZM139.422 100.309C139.617 100.96 139.845 101.676 140.105 102.457C141.798 107.21 145.542 110.823 151.336 113.297C157.195 115.771 162.762 116.715 168.035 116.129C172.202 115.803 176.368 113.46 180.535 109.098C184.767 104.736 190.203 104.996 196.844 109.879C199.773 111.767 199.513 114.762 196.062 118.863C192.612 122.965 189.878 125.732 187.859 127.164C186.492 128.141 185.092 128.987 183.66 129.703C179.884 131.656 176.076 132.828 172.234 133.219C168.393 133.544 164.617 133.512 160.906 133.121C155.828 132.665 150.945 131.526 146.258 129.703C142.612 128.271 139.096 126.383 135.711 124.039C132.391 121.695 129.461 118.798 126.922 115.348C122.169 109.033 118.979 102.034 117.352 94.3516C114.812 82.5026 117.742 72.6068 126.141 64.6641C130.372 60.6276 135.125 57.6328 140.398 55.6797C145.737 53.6615 152.085 52.1641 159.441 51.1875C166.798 50.2109 174.253 51.7083 181.805 55.6797C189.422 59.5859 194.142 65.25 195.965 72.6719C197.788 80.0938 198.113 85.2695 196.941 88.1992C195.77 91.1289 193.751 92.9844 190.887 93.7656C188.087 94.5469 170.932 96.7279 139.422 100.309ZM180.633 80.0938C177.898 74.1042 172.951 71.3372 165.789 71.793C158.628 72.1836 153.061 73.0951 149.09 74.5273C145.118 75.9596 142.189 79.0846 140.301 83.9023C140.105 84.2279 139.943 84.5208 139.812 84.7812L180.633 80.0938ZM214.52 132.633C213.543 132.307 212.762 131.949 212.176 131.559C210.288 130.191 208.921 128.206 208.074 125.602C207.228 122.932 206.642 120.328 206.316 117.789C205.6 112.971 205.21 106.819 205.145 99.332C205.079 91.8451 205.307 84.1302 205.828 76.1875C206.414 68.1797 208.009 62.5807 210.613 59.3906C211.72 57.4375 213.055 56.1029 214.617 55.3867C216.31 54.5404 218.328 54.0521 220.672 53.9219C223.016 53.7266 225.099 53.7266 226.922 53.9219C229.591 54.2474 231.609 55.0938 232.977 56.4609C234.409 57.8281 234.799 60.3346 234.148 63.9805C239.552 59.8789 246.518 58.6419 255.047 60.2695C263.576 61.8971 267.254 65.9987 266.082 72.5742C264.91 79.1497 259.865 81.6888 250.945 80.1914C242.026 78.694 236.818 80.582 235.32 85.8555C234.083 90.0872 233.497 95.4909 233.562 102.066C233.562 102.262 233.562 102.49 233.562 102.75C233.953 108.219 234.572 113.427 235.418 118.375C235.613 119.482 236.004 121.174 236.59 123.453C237.241 126.122 237.208 127.88 236.492 128.727C236.297 128.922 236.102 129.117 235.906 129.312C235.32 130.549 234.344 131.526 232.977 132.242C230.828 133.349 228.419 133.967 225.75 134.098C223.732 134.163 221.746 134.065 219.793 133.805C218.882 133.87 218.003 133.87 217.156 133.805C216.18 133.74 215.301 133.349 214.52 132.633ZM269.793 87.418C273.048 81.168 276.596 76.1875 280.438 72.4766C281.935 71.0443 282.911 70.1328 283.367 69.7422C289.487 64.3385 296.453 60.6276 304.266 58.6094C310.841 56.8516 317.254 56.819 323.504 58.5117C326.434 59.4232 329.363 61.0182 332.293 63.2969C335.223 65.5104 337.436 67.9844 338.934 70.7188C340.561 73.8438 341.57 77.75 341.961 82.4375C342.547 89.3385 341.928 95.556 340.105 101.09C338.934 104.475 337.241 107.763 335.027 110.953C332.879 114.078 330.633 116.91 328.289 119.449C324.773 123.16 320.77 126.35 316.277 129.02C311.85 131.624 307.033 133.154 301.824 133.609C296.421 134 291.342 133.382 286.59 131.754C282.814 130.452 279.331 128.694 276.141 126.48C273.016 124.202 270.607 121.272 268.914 117.691C267.156 114.241 266.18 110.204 265.984 105.582C265.724 99.0065 266.993 92.9518 269.793 87.418ZM287.762 94.5469C286.134 99.4948 287.241 104.605 291.082 109.879C294.988 115.152 300.294 116.389 307 113.59C311.167 111.832 314.194 109.358 316.082 106.168C317.97 102.913 318.947 99.5273 319.012 96.0117C319.142 88.0039 314.812 83.1862 306.023 81.5586C297.234 79.931 291.147 84.2604 287.762 94.5469Z" fill="#4BC553"/>
<path d="M415.594 87.0273C410.255 103.173 406.056 113.557 402.996 118.18C401.824 119.938 400.587 121.663 399.285 123.355C398.048 125.048 396.746 126.578 395.379 127.945C394.663 128.596 393.947 129.182 393.23 129.703C392.254 130.419 390.496 131.168 387.957 131.949C385.809 132.47 383.888 132.861 382.195 133.121C380.503 133.316 378.582 133.121 376.434 132.535C374.611 132.079 372.885 130.973 371.258 129.215C369.174 126.806 367.221 123.681 365.398 119.84C363.12 115.413 360.809 109.553 358.465 102.262C356.186 94.9049 354.103 87.2552 352.215 79.3125C350.327 71.3047 348.764 63.4922 347.527 55.875C346.355 48.2578 345.835 41.9427 345.965 36.9297C345.965 34.3906 346.225 31.6888 346.746 28.8242C347.267 25.9596 348.504 23.7135 350.457 22.0859C352.605 20.1328 356.707 18.4727 362.762 17.1055C368.816 15.6732 372.43 17.4961 373.602 22.5742C373.862 23.9414 373.927 25.3737 373.797 26.8711C373.732 28.3685 373.699 29.8008 373.699 31.168C373.374 40.4128 374.09 50.6016 375.848 61.7344C377.605 72.8672 380.438 85.5299 384.344 99.7227C394.109 85.0091 399.904 72.9974 401.727 63.6875C403.615 54.3776 404.982 48.3229 405.828 45.5234C406.674 42.6589 409.832 41.0638 415.301 40.7383C420.835 40.4128 424.057 41.6823 424.969 44.5469C425.88 47.4115 427.41 53.0104 429.559 61.3438C432.228 72.0208 437.729 84.944 446.062 100.113C450.945 85.7904 454.298 73.0625 456.121 61.9297C457.944 50.7318 458.66 40.5104 458.27 31.2656C458.335 29.8333 458.302 28.401 458.172 26.9688C458.042 25.4714 458.139 24.0391 458.465 22.6719C459.637 17.5286 463.445 15.5755 469.891 16.8125C476.336 17.9844 480.698 19.5143 482.977 21.4023C484.995 23.0299 486.264 25.276 486.785 28.1406C487.306 30.9401 487.566 33.6419 487.566 36.2461C487.697 41.2591 487.143 47.5742 485.906 55.1914C484.669 62.8086 483.074 70.6211 481.121 78.6289C479.168 86.6367 476.954 94.319 474.48 101.676C472.072 108.967 469.728 114.859 467.449 119.352C465.561 123.193 463.543 126.318 461.395 128.727C459.702 130.549 457.879 131.689 455.926 132.145C453.712 132.73 451.759 133.023 450.066 133.023C448.439 132.958 446.551 132.73 444.402 132.34C441.798 131.559 439.975 130.81 438.934 130.094C438.152 129.638 437.404 129.085 436.688 128.434C435.32 127.001 433.953 125.471 432.586 123.844C431.284 122.151 429.982 120.458 428.68 118.766C425.49 114.013 421.128 103.434 415.594 87.0273ZM522.527 92.7891C519.467 93.375 517.059 95.4909 515.301 99.1367C513.543 102.717 513.999 107.275 516.668 112.809C519.337 118.342 523.569 120.979 529.363 120.719C533.009 120.523 535.711 119.384 537.469 117.301C539.292 115.217 540.398 112.743 540.789 109.879C541.18 106.624 540.398 103.564 538.445 100.699C536.557 97.7695 534.214 95.5885 531.414 94.1562C528.615 92.6589 525.652 92.2031 522.527 92.7891ZM544.402 74.0391C544.077 71.3047 541.473 68.9609 536.59 67.0078C533.595 65.6406 529.624 65.3477 524.676 66.1289C520.835 66.6497 517.514 68.0169 514.715 70.2305C511.98 72.444 506.642 71.9883 498.699 68.8633C495.9 67.6263 495.965 65.3151 498.895 61.9297C501.824 58.4792 504.168 56.168 505.926 54.9961C507.098 54.1497 508.335 53.401 509.637 52.75C512.957 51.0573 516.408 49.9505 519.988 49.4297C523.569 48.9089 527.117 48.681 530.633 48.7461C535.385 48.7461 539.975 49.2995 544.402 50.4062C547.983 51.3177 551.401 52.5872 554.656 54.2148C557.911 55.8424 560.678 59 562.957 63.6875C565.301 68.375 566.082 73.974 565.301 80.4844C564.585 86.9297 563.999 94.5794 563.543 103.434C562.957 113.199 563.641 121.891 565.594 129.508C565.724 130.354 565.919 131.233 566.18 132.145C566.44 132.991 566.538 133.805 566.473 134.586C566.408 136.083 565.464 137.092 563.641 137.613C561.883 138.199 560.158 138.492 558.465 138.492C556.772 138.492 554.852 138.264 552.703 137.809C550.555 137.353 549.025 136.865 548.113 136.344C546.616 135.367 545.509 134.065 544.793 132.438C544.272 131.266 543.849 130.126 543.523 129.02C541.831 129.996 540.008 130.875 538.055 131.656C533.758 133.479 529.233 134.423 524.48 134.488C519.533 134.423 514.91 133.577 510.613 131.949C507.293 130.647 504.266 128.954 501.531 126.871C498.797 124.788 496.779 122.281 495.477 119.352C494.174 116.422 493.621 113.102 493.816 109.391C494.077 103.987 495.704 99.1693 498.699 94.9375C500.262 92.8542 501.694 90.9661 502.996 89.2734C504.363 87.5807 507.195 85.2044 511.492 82.1445C515.854 79.0846 521.03 77.2943 527.02 76.7734C533.074 76.1875 538.966 76.806 544.695 78.6289C544.891 78.3034 544.793 76.7734 544.402 74.0391ZM627.02 86.2461L632.879 90.25C633.074 90.3802 633.237 90.4779 633.367 90.543C638.055 93.4076 641.31 96.793 643.133 100.699C645.021 104.605 645.053 109 643.23 113.883C641.342 118.701 637.99 122.802 633.172 126.188C629.982 128.401 626.141 129.996 621.648 130.973C617.156 131.884 612.501 132.21 607.684 131.949C607.684 132.014 607.684 132.079 607.684 132.145H607.586C601.596 131.754 598.732 131.331 598.992 130.875C596.844 130.419 594.988 129.964 593.426 129.508L582.586 124.43C580.438 123.128 578.582 121.63 577.02 119.938C576.954 119.807 576.889 119.742 576.824 119.742C576.759 119.677 576.727 119.579 576.727 119.449C576.596 119.384 576.499 119.319 576.434 119.254C576.434 119.189 576.401 119.124 576.336 119.059C575.49 118.082 575.034 117.04 574.969 115.934V115.445C575.034 114.013 575.099 112.288 575.164 110.27C575.294 108.186 575.652 106.493 576.238 105.191C576.824 103.694 577.703 103.238 578.875 103.824C580.047 104.345 581.056 104.964 581.902 105.68C581.967 105.745 582.033 105.81 582.098 105.875C582.228 105.94 582.358 106.005 582.488 106.07C584.441 107.828 586.688 109.326 589.227 110.562C594.956 113.297 601.889 114.599 610.027 114.469C610.288 114.339 610.711 114.111 611.297 113.785C613.055 112.743 613.445 111.344 612.469 109.586C612.404 109.456 612.339 109.358 612.273 109.293C612.208 109.163 612.176 109.065 612.176 109C611.655 108.349 606.805 105.484 597.625 100.406C588.836 94.3516 583.79 90.3477 582.488 88.3945C579.363 83.707 578.419 79.0521 579.656 74.4297C580.958 69.7422 583.725 65.6732 587.957 62.2227C595.444 56.1029 607.423 53.8893 623.895 55.582C625.913 56.168 627.703 56.7539 629.266 57.3398C629.852 57.6003 630.698 57.9909 631.805 58.5117C632.911 59.1628 634.181 59.8464 635.613 60.5625C637.501 61.3438 638.25 62.1901 637.859 63.1016C637.99 63.2318 638.12 63.3945 638.25 63.5898C639.227 64.8268 639.975 66.5846 640.496 68.8633C641.082 71.0768 640.659 72.8346 639.227 74.1367C639.031 74.2669 638.901 74.3646 638.836 74.4297C637.599 75.4062 635.809 75.6016 633.465 75.0156C630.926 74.2995 628.452 73.7135 626.043 73.2578L621.941 72.2812C616.733 71.6302 612.924 71.3047 610.516 71.3047C605.698 72.9323 606.87 76.0573 614.031 80.6797C614.617 81.2005 618.947 83.056 627.02 86.2461ZM662.859 55.0938C663.185 49.2344 663.706 44.3841 664.422 40.543C665.203 36.5716 666.115 33.4792 667.156 31.2656C668.003 29.3776 669.012 28.1081 670.184 27.457C671.746 26.6758 673.96 26.1549 676.824 25.8945C679.689 25.6341 681.935 25.6016 683.562 25.7969C685.841 26.1224 687.632 26.9362 688.934 28.2383C690.301 29.4753 690.789 31.9818 690.398 35.7578C689.747 41.8125 689.259 48.1602 688.934 54.8008C690.496 54.8659 692.059 54.9635 693.621 55.0938C696.16 55.3542 698.699 55.875 701.238 56.6562C703.777 57.3724 705.828 58.3815 707.391 59.6836C708.497 60.6602 709.344 62.2552 709.93 64.4688C710.451 66.4219 710.646 68.668 710.516 71.207C710.32 73.6159 709.93 75.569 709.344 77.0664C708.628 78.7591 707.716 79.5729 706.609 79.5078C706.089 79.5078 705.535 79.4102 704.949 79.2148C704.493 79.1497 703.842 78.9544 702.996 78.6289C699.09 77.3268 694.663 76.5456 689.715 76.2852H688.738C688.738 76.9362 688.771 77.5872 688.836 78.2383C689.227 93.668 690.789 107.307 693.523 119.156C693.784 120.393 694.077 121.695 694.402 123.062C694.793 124.365 695.021 125.667 695.086 126.969C695.086 129.378 694.207 131.103 692.449 132.145C690.691 133.186 688.641 133.772 686.297 133.902C683.953 134.033 681.154 133.902 677.898 133.512C674.708 133.056 672.625 132.47 671.648 131.754C669.891 130.517 668.556 128.661 667.645 126.188C666.733 123.648 666.049 121.174 665.594 118.766C664.617 114.208 663.836 108.382 663.25 101.285C662.729 94.1888 662.436 86.8646 662.371 79.3125C662.306 78.0755 662.273 76.8385 662.273 75.6016H661.785C657.944 75.6667 654.168 76.0247 650.457 76.6758C649.48 76.8711 648.862 76.9688 648.602 76.9688C648.016 76.9688 647.462 76.8711 646.941 76.6758C646.551 76.4805 646.16 76.1224 645.77 75.6016C645.509 75.2109 645.249 74.5599 644.988 73.6484C644.533 72.0208 644.337 70.1979 644.402 68.1797C644.402 66.1615 644.598 64.306 644.988 62.6133C645.379 60.7904 646.616 59.3581 648.699 58.3164C649.871 57.7305 651.206 57.1771 652.703 56.6562C653.745 56.3958 655.275 56.0703 657.293 55.6797C658.139 55.5495 659.637 55.3542 661.785 55.0938H662.859ZM735.711 100.309C735.906 100.96 736.134 101.676 736.395 102.457C738.087 107.21 741.831 110.823 747.625 113.297C753.484 115.771 759.051 116.715 764.324 116.129C768.491 115.803 772.658 113.46 776.824 109.098C781.056 104.736 786.492 104.996 793.133 109.879C796.062 111.767 795.802 114.762 792.352 118.863C788.901 122.965 786.167 125.732 784.148 127.164C782.781 128.141 781.382 128.987 779.949 129.703C776.173 131.656 772.365 132.828 768.523 133.219C764.682 133.544 760.906 133.512 757.195 133.121C752.117 132.665 747.234 131.526 742.547 129.703C738.901 128.271 735.385 126.383 732 124.039C728.68 121.695 725.75 118.798 723.211 115.348C718.458 109.033 715.268 102.034 713.641 94.3516C711.102 82.5026 714.031 72.6068 722.43 64.6641C726.661 60.6276 731.414 57.6328 736.688 55.6797C742.026 53.6615 748.374 52.1641 755.73 51.1875C763.087 50.2109 770.542 51.7083 778.094 55.6797C785.711 59.5859 790.431 65.25 792.254 72.6719C794.077 80.0938 794.402 85.2695 793.23 88.1992C792.059 91.1289 790.04 92.9844 787.176 93.7656C784.376 94.5469 767.221 96.7279 735.711 100.309ZM776.922 80.0938C774.188 74.1042 769.24 71.3372 762.078 71.793C754.917 72.1836 749.35 73.0951 745.379 74.5273C741.408 75.9596 738.478 79.0846 736.59 83.9023C736.395 84.2279 736.232 84.5208 736.102 84.7812L776.922 80.0938Z" fill="#70E25C"/>
</g>
<defs>
<filter id="filter0_d" x="0.945923" y="0.640625" width="804.205" height="147.852" filterUnits="userSpaceOnUse" color-interpolation-filters="sRGB">
<feFlood flood-opacity="0" result="BackgroundImageFix"/>
<feColorMatrix in="SourceAlpha" type="matrix" values="0 0 0 0 0 0 0 0 0 0 0 0 0 0 0 0 0 0 127 0"/>
<feOffset/>
<feGaussianBlur stdDeviation="5"/>
<feColorMatrix type="matrix" values="0 0 0 0 0 0 0 0 0 0 0 0 0 0 0 0 0 0 0.3 0"/>
<feBlend mode="normal" in2="BackgroundImageFix" result="effect1_dropShadow"/>
<feBlend mode="normal" in="SourceGraphic" in2="effect1_dropShadow" result="shape"/>
</filter>
</defs>
</svg>
