<svg width="111" height="146" viewBox="0 0 111 146" fill="none" xmlns="http://www.w3.org/2000/svg">
<g clip-path="url(#clip0)">
<path d="M94.4516 41.3257C92.1303 41.3829 91.6702 41.4005 89.9579 41.525C85.7761 41.8207 83.2004 42.4008 81.6096 43.4009C81.1228 43.7077 80.5625 44.2725 80.3404 44.6749L80.1627 44.9959L80.1561 45.8302L80.1538 46.6647L79.8889 47.0576C79.5578 47.5402 79.237 48.1699 79.0246 48.7454C78.7803 49.4197 78.4531 50.6374 78.3882 51.1334C78.3483 51.4396 78.3108 52.5544 78.272 54.6896C78.22 57.5508 78.2118 59.4185 78.231 64.9789C78.2461 70.2886 78.2424 71.4386 78.1834 74.6845C78.1485 76.5992 78.1246 79.0978 78.1296 80.2393C78.1398 81.8046 78.1164 82.8548 78.0475 84.5181C77.954 86.8252 77.9599 87.9149 78.0794 88.9072C78.3062 90.8482 79.1064 92.2117 80.634 93.2685C81.1474 93.6238 82.1089 94.1471 83.0634 94.5882C85.6582 95.7898 89.8255 96.527 94.4987 96.6164C98.5577 96.6945 100.533 96.3067 103.554 94.8398C104.881 94.1937 106.939 92.9989 107.753 92.3998C108.463 91.8723 108.64 91.6204 108.848 90.8286C109.268 89.2193 109.282 88.8909 109.364 79.186C109.452 68.6943 109.441 62.9178 109.311 55.881C109.255 52.8405 109.232 52.438 109.104 51.6833C108.867 50.2955 108.231 48.6799 107.391 47.3416L107.145 46.9523L107.212 46.5644C107.246 46.3532 107.32 45.8098 107.371 45.361L107.472 44.5414L107.253 44.3299C105.8 42.9242 102.498 41.8827 98.187 41.4757C97.3549 41.3957 95.1523 41.3081 94.4516 41.3257Z" fill="#4BC553"/>
</g>
<g clip-path="url(#clip1)">
<path d="M11.7685 76.3062C11.0246 78.2022 10.9623 79.4853 11.5727 80.1237C11.7081 80.2624 12.1051 80.521 12.5858 80.7729C13.0155 81.0049 14.3516 81.7278 15.545 82.3884C17.4412 83.4434 17.758 83.6391 18.0859 83.9575C18.4495 84.323 19.3419 84.8864 19.5374 84.8706C19.5895 84.8729 19.9404 84.9443 20.3078 85.0339C20.95 85.188 21.0958 85.2608 22.9139 86.2809C26.6582 88.3818 30.4189 90.9761 33.3565 93.4852C35.5412 95.3566 36.3168 96.0966 39.7655 99.6905C40.9969 100.964 42.0541 102.042 42.1217 102.08C42.1825 102.114 42.4534 102.391 42.7301 102.69C43.4597 103.512 46.2789 106.501 47.1775 107.418C50.0029 110.286 52.6832 112.525 55.7423 114.564C56.2398 114.897 60.9567 117.624 66.6486 120.863C85.9539 131.847 85.0647 131.357 86.157 131.549C88.4899 131.952 90.9704 130.43 93.53 127.024C95.0336 125.025 97.8154 120.067 98.8487 117.545C99.3019 116.436 99.7574 114.943 99.9195 114.021C100.241 112.166 99.9561 110.392 99.1365 109.224C98.3623 108.117 99.3541 108.709 84.4188 100.437C77.0733 96.3602 70.3439 92.6741 69.4694 92.2372C64.8157 89.904 60.778 88.6427 52.9792 87.1003C51.5956 86.8261 51.1762 86.7342 49.6093 86.3751C48.9806 86.2286 48.2555 86.0638 47.9942 86.0069C47.7329 85.9499 46.7706 85.7328 45.8632 85.5285C44.9491 85.3205 43.8701 85.0737 43.4575 84.9857C41.6977 84.5901 39.1184 83.7705 36.1025 82.6521C33.6596 81.7477 29.7767 79.9097 27.0056 78.3549C25.5998 77.5661 25.1776 77.2575 24.6019 76.6206C24.1674 76.1437 23.506 75.7547 22.7962 75.5626C22.0758 75.3736 18.5791 73.5282 18.1285 73.096C17.6972 72.6927 16.7636 72.1868 16.1899 72.0531C15.5882 71.9218 15.0869 72.0709 14.431 72.5905C13.6915 73.1799 13.2352 73.7398 12.5079 74.9726C12.1462 75.5856 11.82 76.1827 11.7685 76.3062Z" fill="#4BC553"/>
</g>
<g clip-path="url(#clip2)">
<path d="M88.6578 21.0903C88.1925 20.8219 88.0702 20.8514 86.3854 21.6728C85.0678 22.3099 84.8293 22.4454 84.6259 22.667C84.4225 22.8885 84.226 22.9951 83.0566 23.5419L81.7166 24.1664L80.7652 24.0542C79.3894 23.8842 77.9425 23.8294 75.0452 23.8094C68.1121 23.7828 64.7156 23.9574 61.7486 24.5059C61.1437 24.6183 61.0954 24.6186 60.3053 24.3618C58.6157 23.8234 57.4537 24.1276 56.5586 25.3334C56.4229 25.513 56.219 25.8622 56.1055 26.1183L55.9045 26.5696L55.4 26.4643C55.1204 26.4054 54.664 26.3636 54.3777 26.3717C53.9082 26.3843 53.8019 26.4137 53.2156 26.7078C52.6228 27.0052 52.5486 27.0663 52.2546 27.4448C52.0801 27.6758 51.8277 28.1051 51.6915 28.4123L51.4451 28.9661L50.8507 28.8262C49.0932 28.4096 47.7434 29.0628 47.0043 30.6922L46.7871 31.1755L46.3726 31.0728C44.7277 30.6554 43.3617 31.3248 42.6195 32.9158L42.3862 33.4153L41.9621 33.2934C41.4032 33.1278 40.5864 33.1233 40.0424 33.2768C39.2151 33.5086 38.4793 34.2283 38.0835 35.1756L37.8985 35.6428L37.4616 35.5274C37.2238 35.4714 36.7641 35.4233 36.4264 35.4254C35.8572 35.4322 35.7929 35.4485 35.2065 35.7427C34.6202 36.0368 34.5686 36.0787 34.2131 36.5437C34.0096 36.8131 33.7539 37.252 33.65 37.5272L33.4553 38.0232L32.8416 37.877C32.5042 37.7994 31.9899 37.7388 31.7037 37.7469C31.218 37.7596 31.1279 37.7889 30.5029 38.1024C29.8714 38.4192 29.807 38.4675 29.5097 38.8556C29.3352 39.0865 29.1119 39.4773 29.0048 39.7302C28.9042 39.9798 28.8006 40.1911 28.7748 40.204C28.749 40.217 28.5434 40.1768 28.3056 40.1208C27.3964 39.8839 26.3603 40.0532 25.7089 40.5393C25.2511 40.8806 24.8083 41.477 24.5844 42.0275C24.4838 42.2771 24.3866 42.4852 24.3608 42.4981C24.3351 42.511 24.1037 42.4678 23.8435 42.3992C23.5768 42.3339 23.13 42.2792 22.8406 42.281C22.3517 42.2873 22.2745 42.3101 21.643 42.6269C21.018 42.9405 20.9407 42.9952 20.6466 43.3737C20.469 43.5983 20.2296 43.9892 20.1096 44.2485L19.8925 44.7159L19.3559 44.5948C18.167 44.331 17.1339 44.5705 16.3949 45.2837C16.0302 45.634 15.6485 46.2396 15.5054 46.6938L15.4143 46.9784L14.942 46.8569C13.9878 46.6108 13.0032 46.7702 12.3003 47.2821C10.8656 48.3126 10.3191 50.9047 10.8115 54.3138C10.865 54.6614 10.9365 55.3184 10.9799 55.7746C11.1224 57.2484 11.5218 58.8482 12.2606 60.8354C13.4739 64.1218 15.921 67.6654 18.2298 69.4703C18.5569 69.7204 19.0025 70.0942 19.227 70.2843C21.317 72.1193 23.2498 72.9498 24.7141 72.6373C25.567 72.4564 26.2604 71.9094 26.7459 71.0286C26.9046 70.7339 27.0504 70.4298 27.0668 70.3499C27.0962 70.2156 27.1252 70.2091 27.3532 70.2778C27.4978 70.3248 27.8417 70.3833 28.1213 70.4103C29.5517 70.5768 30.7379 69.8224 31.3639 68.3534L31.5066 68.011L32.0593 68.132C32.3613 68.2035 32.8371 68.2515 33.1233 68.2434C33.5929 68.2308 33.6991 68.2014 34.2854 67.9073C34.904 67.597 34.9492 67.5584 35.3046 67.0933C35.5114 66.8303 35.7541 66.4138 35.845 66.177L36.0234 65.745L36.5118 65.8504C37.1545 65.99 37.5917 66.0096 38.0777 65.9172C39.0816 65.7321 39.7978 65.102 40.3263 63.9368L40.5337 63.4822L40.9964 63.6006C41.2534 63.6628 41.6906 63.7143 41.98 63.7125C42.4688 63.7062 42.5461 63.6834 43.1775 63.3666C43.8025 63.0531 43.8799 62.9983 44.1739 62.6198C44.3516 62.3953 44.5942 61.9947 44.7142 61.7354C44.8309 61.4698 44.9765 61.2295 45.028 61.2036C45.086 61.1745 45.3753 61.2046 45.671 61.2634C47.4222 61.6354 48.6593 61.0148 49.4113 59.3949L49.6382 58.8987L50.1041 59.0075C51.7459 59.4025 53.0926 58.7269 53.8122 57.1552L54.0229 56.691L54.582 56.8088C55.6713 57.0349 56.5788 56.8824 57.256 56.3515C57.7075 55.9975 58.1244 55.4299 58.3516 54.8539L58.5268 54.4155L58.9284 54.5247C60.0528 54.8368 61.1631 54.5905 61.9376 53.8514C62.2733 53.5237 62.6743 52.8924 62.8012 52.4862C62.9053 52.1472 63.1017 52.0885 63.7123 52.2124C65.4442 52.5781 66.807 51.8865 67.4302 50.3153L67.6119 49.8577L67.9076 49.9165C68.9776 50.1523 69.6145 50.1036 70.3683 49.7254C70.8645 49.4765 70.9483 49.4026 71.2908 48.9759C71.5396 48.652 71.7403 48.2804 71.9091 47.8453C72.1235 47.2598 72.1914 47.154 72.5592 46.8261C74.6788 44.9423 76.4648 42.8435 80.2746 37.7699C82.7273 34.5083 83.7229 33.0848 84.5643 31.6431L85.0821 30.7461L86.2166 30.0335L87.3447 29.3242L87.6081 29.4151C87.7462 29.4653 87.9584 29.4863 88.0774 29.4664C88.1933 29.4402 88.9857 29.0745 89.8362 28.6478C91.3311 27.8978 91.3859 27.8624 91.5411 27.6092C91.8549 27.1093 91.8612 27.138 90.2968 24.0198C88.9304 21.2961 88.8888 21.2293 88.6578 21.0903Z" fill="#4BC553"/>
</g>
<defs>
<clipPath id="clip0">
<rect width="31.6186" height="55.3326" fill="white" transform="translate(78.495 41.0096) rotate(1.04187)"/>
</clipPath>
<clipPath id="clip1">
<rect width="50.0461" height="99.1986" fill="white" transform="translate(0 97.1854) rotate(-60.7035)"/>
</clipPath>
<clipPath id="clip2">
<rect width="45.5662" height="92.2715" fill="white" transform="translate(84.7792) rotate(63.3578)"/>
</clipPath>
</defs>
</svg>
