<svg width="109" height="89" viewBox="0 0 109 89" fill="none" xmlns="http://www.w3.org/2000/svg">
<path d="M4.75274 0.132103C3.35094 0.493668 2.1761 1.52273 1.41512 3.05936C0.907806 4.07452 0.694198 4.84632 0.607421 5.97968L0.554019 6.64023L1.97584 12.8841C3.71808 20.5326 4.09856 21.805 5.12655 23.4737C5.78072 24.5376 6.79535 25.3441 7.68316 25.5041C7.97687 25.5597 7.97019 25.5597 7.40947 25.6362C6.34144 25.7891 5.70062 26.109 4.96634 26.8669C3.83823 28.035 3.24413 29.4117 2.06929 33.5488C1.65543 35.002 1.02128 37.2409 0.654147 38.5203C-0.100153 41.1694 -0.100153 41.1903 0.246958 42.4905C0.340412 42.8521 0.44054 43.2971 0.467241 43.4918C0.574044 44.1732 1.08804 47.7958 1.3951 50.0555L1.58868 51.4114L1.90909 51.7312C2.08932 51.9051 2.3096 52.0998 2.39638 52.1693C2.51653 52.2527 2.56994 52.3779 2.60999 52.6491C2.73682 53.5599 2.95042 55.0757 3.13733 56.3898C3.25081 57.1755 3.39766 58.2394 3.47109 58.7539C3.63797 59.9429 3.95838 62.1887 4.13861 63.4473C4.21204 63.9826 4.3322 64.8448 4.40562 65.3594C4.47905 65.8739 4.62591 66.9377 4.73938 67.7234C4.85286 68.5091 4.99972 69.573 5.07315 70.0875C5.14657 70.602 5.29343 71.6658 5.40691 72.4516C5.52039 73.2373 5.64054 74.0786 5.67392 74.3289C5.70729 74.5792 5.82745 75.4205 5.94093 76.2062C6.04773 76.9919 6.22128 78.1809 6.31474 78.8484C6.40819 79.5159 6.55505 80.5658 6.64182 81.1777C6.73528 81.7896 6.88213 82.9021 6.97558 83.6461C7.19587 85.3844 7.24259 85.593 7.52295 86.2048C7.68983 86.5664 7.88342 86.8515 8.19715 87.1783C8.75787 87.7623 9.23181 88.0544 9.90601 88.2351C10.4267 88.3742 10.6069 88.3742 25.6796 88.3742C42.4878 88.3742 41.5132 88.402 42.3276 87.9501C43.3956 87.3591 44.1633 86.2744 44.3235 85.141C44.3635 84.8698 44.6772 82.6031 45.0244 80.1C45.3715 77.5969 45.9722 73.3068 46.3594 70.5742C46.7466 67.8416 47.1538 64.9769 47.2606 64.2121C47.5142 62.3834 48.6223 54.582 48.7892 53.4487C48.8626 52.955 48.9294 52.5448 48.9427 52.5378C48.9561 52.5308 49.143 52.4126 49.3566 52.2805C49.5702 52.1554 49.8572 51.8981 49.9974 51.7243L50.2377 51.4044L50.4914 49.0473C50.6249 47.7541 50.7651 46.5025 50.7984 46.273C50.8251 46.0436 50.9319 45.2301 51.0254 44.4652C51.1255 43.7004 51.2457 42.9008 51.2991 42.6922C51.4793 41.9551 51.5327 41.2181 51.4393 40.8426C51.3525 40.5228 50.6449 37.9988 50.0575 35.9476C49.5769 34.265 49.2832 33.229 48.8626 31.741C48.0549 28.8624 47.5943 27.8751 46.6197 26.8738C46.1258 26.3593 45.238 25.8656 44.5905 25.7335C44.3902 25.6918 44.1633 25.6431 44.0898 25.6292C44.0164 25.6153 44.0898 25.6014 44.2567 25.5944C45.1312 25.5666 46.0457 25.1564 46.7532 24.468C47.314 23.9257 47.6878 23.3694 48.095 22.4934C48.6824 21.2348 48.6357 21.4156 51.7129 7.96132C51.9933 6.73757 52.0133 6.59851 51.9666 6.04921C51.8264 4.21358 51.1255 2.5657 50.0108 1.43929C49.2765 0.702255 48.4554 0.243355 47.5676 0.0764771C47.2873 0.0208511 40.9859 -7.62939e-06 26.2069 0.00694275C6.30806 0.00694275 5.21333 0.0139008 4.75274 0.132103Z" fill="#4BC553"/>
<g clip-path="url(#clip0)">
<path d="M25.5583 56.9763C24.4627 56.9837 23.4346 56.9941 23.2745 56.9986L22.9841 57.009L23.1097 57.049C23.5351 57.187 23.8898 57.3872 24.2696 57.7002C24.6134 57.9835 24.9665 58.4033 25.2977 58.9225C25.4594 59.1761 27.2017 62.2095 27.1922 62.2229C27.1891 62.2288 26.9066 62.4038 26.5644 62.6115L25.9428 62.9898L26.3776 62.9987C26.6178 63.0046 27.5093 63.012 28.36 63.0179C29.2107 63.0224 30.0442 63.0313 30.2122 63.0357L30.5182 63.0432L31.7001 61.1994C32.35 60.1848 32.8993 59.3259 32.9229 59.2903L32.9637 59.2251L32.7847 59.3141C32.6858 59.3645 32.4394 59.4861 32.2369 59.5855C32.0345 59.6849 31.7896 59.8065 31.6939 59.854L31.5212 59.94L31.0252 59.0767C30.7521 58.6021 30.5119 58.1793 30.49 58.1378C30.4225 58.0117 30.2687 57.804 30.1494 57.6824C29.8245 57.3501 29.396 57.1128 28.9094 56.9956C28.776 56.963 28.2031 56.96 25.5583 56.9763Z" fill="white"/>
<path d="M22.0894 57.1632C21.7676 57.2018 21.4176 57.359 21.1601 57.5786C21.0801 57.6468 18.7916 60.9769 18.812 60.9947C18.8183 61.0021 19.7915 61.548 20.9734 62.2095C22.2243 62.9097 23.1284 63.4081 23.1363 63.4006C23.1441 63.3932 23.6652 62.5937 24.2962 61.6236L25.4405 59.8614L25.3227 59.6508C24.5505 58.2564 23.5036 57.3219 22.5524 57.1751C22.4158 57.1543 22.2039 57.1484 22.0894 57.1632Z" fill="white"/>
<path d="M31.3407 64.3559C30.1713 65.0308 29.206 65.5901 29.1934 65.6019C29.1746 65.6182 29.3331 65.903 30.2168 67.4502L31.2622 69.2791H31.7613C32.138 69.2776 32.3154 69.2717 32.488 69.2509C33.1912 69.1708 33.7155 69.0344 34.2068 68.8044C34.4987 68.668 34.7012 68.5389 34.8927 68.3683C35.2804 68.0242 35.4797 67.5629 35.4499 67.0764C35.4295 66.7589 35.4813 66.8702 34.5207 65.0813C34.0388 64.1839 33.6056 63.3784 33.5554 63.2909L33.4675 63.1307L31.3407 64.3559Z" fill="white"/>
<path d="M18.0163 63.193C17.1138 63.1989 16.1767 63.2093 15.9319 63.2167L15.4892 63.2271L16.1485 63.7136C16.511 63.9821 16.8077 64.2076 16.8077 64.215C16.8077 64.2239 16.5079 64.7727 16.1406 65.4358C15.7749 66.0988 15.4578 66.6907 15.4359 66.7515C15.235 67.3226 15.4845 67.9782 16.1186 68.5359C16.6774 69.0269 17.2692 69.2301 18.3569 69.3013C18.6143 69.3176 19.4023 69.3251 19.4258 69.3102C19.4336 69.3058 19.8386 68.6887 20.3236 67.9381L21.2057 66.575L21.3266 66.6358C21.3925 66.6699 21.6892 66.8212 21.9874 66.974C22.2856 67.1268 22.5305 67.2499 22.5336 67.2469C22.5368 67.2439 22.0172 66.3287 21.38 65.2118L20.22 63.1826L19.9391 63.1811C19.7837 63.1811 18.9188 63.1855 18.0163 63.193Z" fill="white"/>
<path d="M27.0525 70.1127L25.9255 72.0336L26.2991 72.6804C26.5063 73.0379 27.0133 73.9145 27.4261 74.6295L28.1795 75.9304L28.1889 75.8236C28.1952 75.7657 28.2077 75.4527 28.2172 75.1308C28.2266 74.809 28.2391 74.5064 28.2438 74.4589L28.2533 74.3729L29.465 74.3758C30.5355 74.3773 30.6908 74.3743 30.8054 74.3536C31.1052 74.2972 31.4348 74.1652 31.7111 73.9931C31.9214 73.8611 32.2134 73.5837 32.3248 73.4102C32.386 73.3167 34.8644 68.9424 35.0214 68.6516C35.0449 68.6086 35.023 68.622 34.8864 68.7332C34.2774 69.2301 33.6511 69.4719 32.6529 69.5921C32.4739 69.6143 32.1977 69.6188 30.3581 69.6232L28.2658 69.6292V69.5654C28.2658 69.4526 28.203 68.3624 28.1905 68.2749L28.1795 68.1903L27.0525 70.1127Z" fill="white"/>
<path d="M15.6932 68.5493C15.6932 68.5537 16.2457 69.5209 16.9191 70.6986C17.594 71.8749 18.2391 73.0023 18.3521 73.201C18.5531 73.5555 18.5609 73.5674 18.7069 73.7068C19.0255 74.0109 19.4791 74.2141 20.0583 74.3135C20.5229 74.3936 20.5103 74.3936 22.5241 74.3996L24.4045 74.4055V72.0188V69.6321L23.4282 69.6217C22.8899 69.6173 21.7158 69.6084 20.818 69.6039C17.8687 69.5876 17.9943 69.5891 17.7965 69.5624C16.996 69.4497 16.3368 69.1515 15.8282 68.6694C15.7545 68.5982 15.6932 68.5448 15.6932 68.5493Z" fill="white"/>
</g>
<path d="M61.7529 0.132103C60.3511 0.493668 59.1762 1.52273 58.4152 3.05936C57.9079 4.07452 57.6943 4.84632 57.6075 5.97968L57.5541 6.64023L58.976 12.8841C60.7182 20.5326 61.0987 21.805 62.1267 23.4737C62.7808 24.5376 63.7955 25.3441 64.6833 25.5041C64.977 25.5597 64.9703 25.5597 64.4096 25.6362C63.3416 25.7891 62.7007 26.109 61.9665 26.8669C60.8384 28.035 60.2443 29.4117 59.0694 33.5488C58.6556 35.002 58.0214 37.2409 57.6543 38.5203C56.9 41.1694 56.9 41.1903 57.2471 42.4905C57.3405 42.8521 57.4407 43.2971 57.4674 43.4918C57.5742 44.1732 58.0882 47.7958 58.3952 50.0555L58.5888 51.4114L58.9092 51.7312C59.0894 51.9051 59.3097 52.0998 59.3965 52.1693C59.5167 52.2527 59.5701 52.3779 59.6101 52.6491C59.7369 53.5599 59.9505 55.0757 60.1375 56.3898C60.2509 57.1755 60.3978 58.2394 60.4712 58.7539C60.6381 59.9429 60.9585 62.1887 61.1387 63.4473C61.2122 63.9826 61.3323 64.8448 61.4057 65.3594C61.4792 65.8739 61.626 66.9377 61.7395 67.7234C61.853 68.5091 61.9998 69.573 62.0733 70.0875C62.1467 70.602 62.2936 71.6658 62.407 72.4516C62.5205 73.2373 62.6407 74.0786 62.674 74.3289C62.7074 74.5792 62.8276 75.4205 62.941 76.2062C63.0479 76.9919 63.2214 78.1809 63.3149 78.8484C63.4083 79.5159 63.5552 80.5658 63.6419 81.1777C63.7354 81.7896 63.8823 82.9021 63.9757 83.6461C64.196 85.3844 64.2427 85.593 64.5231 86.2048C64.69 86.5664 64.8835 86.8515 65.1973 87.1783C65.758 87.7623 66.2319 88.0544 66.9061 88.2351C67.4268 88.3742 67.607 88.3742 82.6797 88.3742C99.4879 88.3742 98.5133 88.402 99.3277 87.9501C100.396 87.3591 101.163 86.2744 101.324 85.141C101.364 84.8698 101.677 82.6031 102.024 80.1C102.372 77.5969 102.972 73.3068 103.36 70.5742C103.747 67.8416 104.154 64.9769 104.261 64.2121C104.514 62.3834 105.622 54.582 105.789 53.4487C105.863 52.955 105.929 52.5448 105.943 52.5378C105.956 52.5308 106.143 52.4126 106.357 52.2805C106.57 52.1554 106.857 51.8981 106.998 51.7243L107.238 51.4044L107.491 49.0473C107.625 47.7541 107.765 46.5025 107.799 46.273C107.825 46.0436 107.932 45.2301 108.026 44.4652C108.126 43.7004 108.246 42.9008 108.299 42.6922C108.479 41.9551 108.533 41.2181 108.439 40.8426C108.353 40.5228 107.645 37.9988 107.058 35.9476C106.577 34.265 106.283 33.229 105.863 31.741C105.055 28.8624 104.594 27.8751 103.62 26.8738C103.126 26.3593 102.238 25.8656 101.591 25.7335C101.39 25.6918 101.163 25.6431 101.09 25.6292C101.017 25.6153 101.09 25.6014 101.257 25.5944C102.131 25.5666 103.046 25.1564 103.753 24.468C104.314 23.9257 104.688 23.3694 105.095 22.4934C105.683 21.2348 105.636 21.4156 108.713 7.96132C108.993 6.73757 109.013 6.59851 108.967 6.04921C108.827 4.21358 108.126 2.5657 107.011 1.43929C106.277 0.702255 105.456 0.243355 104.568 0.0764771C104.287 0.0208511 97.986 -7.62939e-06 83.207 0.00694275C63.3082 0.00694275 62.2134 0.0139008 61.7529 0.132103Z" fill="#4BC553"/>
<g clip-path="url(#clip1)">
<path d="M82.558 56.9763C81.4625 56.9837 80.4344 56.9941 80.2743 56.9986L79.9839 57.009L80.1095 57.049C80.5348 57.187 80.8895 57.3872 81.2694 57.7002C81.6131 57.9835 81.9663 58.4033 82.2975 58.9225C82.4592 59.1761 84.2014 62.2095 84.192 62.2229C84.1889 62.2288 83.9063 62.4038 83.5642 62.6115L82.9426 62.9898L83.3774 62.9987C83.6175 63.0046 84.5091 63.012 85.3598 63.0179C86.2105 63.0224 87.044 63.0313 87.2119 63.0357L87.518 63.0432L88.6999 61.1994C89.3497 60.1848 89.8991 59.3259 89.9226 59.2903L89.9634 59.2251L89.7845 59.3141C89.6856 59.3645 89.4392 59.4861 89.2367 59.5855C89.0342 59.6849 88.7894 59.8065 88.6936 59.854L88.521 59.94L88.025 59.0767C87.7519 58.6021 87.5117 58.1793 87.4897 58.1378C87.4222 58.0117 87.2684 57.804 87.1491 57.6824C86.8242 57.3501 86.3957 57.1128 85.9091 56.9956C85.7757 56.963 85.2028 56.96 82.558 56.9763Z" fill="white"/>
<path d="M79.0892 57.1632C78.7675 57.2018 78.4174 57.359 78.16 57.5786C78.08 57.6468 75.7915 60.9769 75.8119 60.9947C75.8182 61.0021 76.7913 61.548 77.9732 62.2095C79.2242 62.9097 80.1283 63.4081 80.1362 63.4006C80.144 63.3932 80.6651 62.5937 81.2961 61.6236L82.4403 59.8614L82.3226 59.6508C81.5504 58.2564 80.5034 57.3219 79.5523 57.1751C79.4157 57.1543 79.2038 57.1484 79.0892 57.1632Z" fill="white"/>
<path d="M88.3403 64.3559C87.1709 65.0308 86.2056 65.5901 86.1931 65.6019C86.1742 65.6182 86.3328 65.903 87.2165 67.4502L88.2618 69.2791H88.7609C89.1377 69.2776 89.315 69.2717 89.4877 69.2509C90.1909 69.1708 90.7151 69.0344 91.2064 68.8044C91.4983 68.668 91.7008 68.5389 91.8923 68.3683C92.28 68.0242 92.4793 67.5629 92.4495 67.0764C92.4291 66.7589 92.4809 66.8702 91.5203 65.0813C91.0384 64.1839 90.6052 63.3784 90.555 63.2909L90.4671 63.1307L88.3403 64.3559Z" fill="white"/>
<path d="M75.0161 63.193C74.1135 63.1989 73.1765 63.2093 72.9316 63.2167L72.489 63.2271L73.1482 63.7136C73.5108 63.9821 73.8075 64.2076 73.8075 64.215C73.8075 64.2239 73.5077 64.7727 73.1404 65.4358C72.7747 66.0988 72.4576 66.6907 72.4356 66.7515C72.2347 67.3226 72.4843 67.9782 73.1184 68.5359C73.6772 69.0269 74.2689 69.2301 75.3567 69.3013C75.6141 69.3176 76.402 69.3251 76.4256 69.3102C76.4334 69.3058 76.8384 68.6887 77.3234 67.9381L78.2055 66.575L78.3263 66.6358C78.3923 66.6699 78.6889 66.8212 78.9871 66.974C79.2854 67.1268 79.5302 67.2499 79.5334 67.2469C79.5365 67.2439 79.017 66.3287 78.3797 65.2118L77.2198 63.1826L76.9388 63.1811C76.7834 63.1811 75.9186 63.1855 75.0161 63.193Z" fill="white"/>
<path d="M84.0523 70.1127L82.9253 72.0336L83.2989 72.6804C83.506 73.0379 84.013 73.9145 84.4258 74.6295L85.1792 75.9304L85.1887 75.8236C85.1949 75.7657 85.2075 75.4527 85.2169 75.1308C85.2263 74.809 85.2389 74.5064 85.2436 74.4589L85.253 74.3729L86.4647 74.3758C87.5352 74.3773 87.6906 74.3743 87.8052 74.3536C88.105 74.2972 88.4346 74.1652 88.7108 73.9931C88.9212 73.8611 89.2131 73.5837 89.3246 73.4102C89.3858 73.3167 91.8642 68.9424 92.0211 68.6516C92.0447 68.6086 92.0227 68.622 91.8862 68.7332C91.2771 69.2301 90.6509 69.4719 89.6526 69.5921C89.4737 69.6143 89.1974 69.6188 87.3578 69.6232L85.2656 69.6292V69.5654C85.2656 69.4526 85.2028 68.3624 85.1902 68.2749L85.1792 68.1903L84.0523 70.1127Z" fill="white"/>
<path d="M72.6931 68.5493C72.6931 68.5537 73.2456 69.5209 73.919 70.6986C74.5939 71.8749 75.239 73.0023 75.352 73.201C75.5529 73.5555 75.5608 73.5674 75.7068 73.7068C76.0254 74.0109 76.479 74.2141 77.0582 74.3135C77.5228 74.3936 77.5102 74.3936 79.524 74.3996L81.4044 74.4055V72.0188V69.6321L80.4281 69.6217C79.8897 69.6173 78.7157 69.6084 77.8179 69.6039C74.8686 69.5876 74.9942 69.5891 74.7964 69.5624C73.9959 69.4497 73.3367 69.1515 72.8281 68.6694C72.7543 68.5982 72.6931 68.5448 72.6931 68.5493Z" fill="white"/>
</g>
<defs>
<clipPath id="clip0">
<rect width="20.0909" height="18.9867" fill="white" transform="translate(15.3636 56.96)"/>
</clipPath>
<clipPath id="clip1">
<rect width="20.0909" height="18.9867" fill="white" transform="translate(72.3635 56.96)"/>
</clipPath>
</defs>
</svg>
