<svg width="212" height="70" viewBox="0 0 212 70" fill="none" xmlns="http://www.w3.org/2000/svg">
<path d="M71.4623 18.3732C70.7209 17.4648 69.8162 16.703 68.7947 16.127C66.6888 14.7232 62.7577 13.8809 59.8093 14.5828C56.4886 15.0215 53.4683 16.7329 51.3855 19.3559C48.5711 23.1591 47.18 27.8289 47.4543 32.552C47.4543 38.027 48.8583 42.379 51.6663 45.4674C54.3338 48.5559 58.2649 50.2405 63.1789 50.2405L66.2676 50.1001C67.132 49.9544 67.979 49.7192 68.7947 49.3982L71.1815 48.4155L73.2875 47.4328C73.8491 47.152 74.1298 46.5905 74.1298 45.8886V40.2732C74.1298 38.8693 72.1643 38.027 71.0411 38.8693C70.7603 39.2905 70.3391 39.5713 69.7775 39.852C68.4966 40.7437 67.0718 41.4085 65.5656 41.8174C64.6568 42.1012 63.7097 42.2433 62.7577 42.2386C60.5113 42.2386 58.6861 41.5367 57.4226 39.852C56.2994 38.5886 55.5974 36.7636 55.3166 34.377H73.0067C73.4535 34.377 73.882 34.1996 74.198 33.8836C74.5139 33.5677 74.6914 33.1392 74.6914 32.6924V29.8847C74.6914 27.2174 74.4106 24.9713 73.8491 23.1463C73.5493 21.3803 72.7725 19.7298 71.6027 18.3732H71.4623ZM55.8782 27.077L56.159 25.8136C56.4398 24.9713 56.861 24.2693 57.563 23.7078C58.1245 23.1463 58.6861 22.5847 59.3881 22.304C60.7921 21.602 63.1789 21.602 64.302 22.304C64.8636 22.4443 65.4252 23.0059 65.706 23.427C66.1272 23.8482 66.408 24.6905 66.5484 25.5328L66.8292 26.9367H55.8782V27.077ZM25.8332 13.6001L20.9193 14.302C20.2173 14.302 19.5153 14.8636 19.5153 15.5655L15.7246 34.9386L7.58151 16.829C7.45505 16.5047 7.21266 16.239 6.90135 16.0834C6.59005 15.9277 6.23202 15.8933 5.89674 15.9867L0.982831 16.5482C0.421241 16.5482 4.94719e-05 16.829 -0.421143 17.3905V18.7943L12.6358 46.7309C13.4782 48.5559 15.4438 49.5386 17.2689 49.3982C18.2219 49.2727 19.1122 48.854 19.8165 48.2C20.5209 47.546 21.0044 46.6892 21.2001 45.7482L27.6583 15.8463C27.6583 15.2847 27.6583 14.7232 27.2371 14.4424C26.8159 14.0213 26.2544 13.7405 25.8332 13.7405V13.6001ZM110.774 28.7617C109.834 28.543 108.898 28.309 107.966 28.0597L105.719 27.4982C104.315 27.077 103.754 26.6559 103.473 26.2347C103.192 25.954 103.052 25.1117 103.052 24.6905C103.052 23.427 103.473 23.0059 103.894 22.7251C105.579 21.602 108.106 21.602 110.633 22.7251C112.037 23.1463 113.16 24.129 114.283 24.8309C114.564 25.1117 115.126 25.252 115.547 25.252C115.994 25.252 116.422 25.0746 116.738 24.7586C117.054 24.4427 117.232 24.0142 117.232 23.5674V17.952C117.232 17.3905 116.811 16.829 116.389 16.5482C113.486 14.8771 110.192 14.0052 106.842 14.0213C103.655 13.9155 100.546 15.0188 98.1378 17.1097C97.0246 18.1156 96.1459 19.3536 95.5637 20.7363C94.9814 22.1189 94.7099 23.6126 94.7683 25.1117C94.7683 27.4982 95.4703 29.4636 96.5934 31.1482C97.9301 33.0019 99.8632 34.3401 102.069 34.9386L104.877 35.7809L107.123 36.3424C108.808 36.7636 109.37 37.3251 109.51 37.3251C109.931 37.7463 110.072 38.4482 110.072 39.0097C110.072 39.9924 109.931 40.4136 109.791 40.4136C109.791 40.6943 109.51 40.9751 109.089 41.3963L107.685 41.8174C106.14 42.0982 104.736 42.0982 103.332 41.8174C102.504 41.518 101.705 41.142 100.946 40.6943C100.103 40.4136 99.5418 39.852 98.9802 39.5713L97.5762 38.4482C97.1826 38.2575 96.7499 38.1613 96.3126 38.1674C95.8891 38.166 95.4805 38.324 95.1683 38.6102C94.8561 38.8964 94.6632 39.2896 94.6279 39.7117V45.6078C94.6279 46.1693 95.0491 46.8713 95.4702 47.0117C96.7338 47.7136 98.1378 48.4155 99.6822 48.977C103.33 50.177 107.266 50.177 110.914 48.977C112.318 48.5559 113.722 47.5732 114.845 46.7309C115.938 45.6533 116.798 44.3633 117.372 42.9405C117.934 41.5367 118.215 40.1328 118.215 38.5886C118.343 36.2715 117.646 33.9839 116.249 32.1309C114.846 30.4339 112.921 29.2492 110.774 28.7617ZM207.507 19.4963C206.775 18.0806 205.696 16.8742 204.369 15.9902C203.043 15.1062 201.514 14.5736 199.926 14.4424C197.118 14.0213 193.187 14.4424 189.677 15.7059C188.399 16.1341 187.135 16.6023 185.886 17.1097C185.325 17.5309 184.903 18.0924 185.044 18.7943L185.746 23.9886C185.746 25.252 187.431 25.8136 188.554 25.252L192.344 23.1463C194.129 22.4381 196.041 22.1036 197.96 22.1636C198.662 22.1636 199.364 22.1636 199.645 22.4443L200.628 23.427L201.189 25.1117L195.854 26.5155C193.853 27.0337 191.954 27.8881 190.238 29.0424C188.399 30.2126 186.975 31.9315 186.167 33.9559C185.421 36.023 185.228 38.2488 185.605 40.4136C185.886 41.8174 186.307 43.3616 187.009 44.7655C187.571 46.1693 188.413 47.2924 189.536 48.1347C190.537 49.0549 191.739 49.728 193.046 50.1001C194.45 50.3809 195.714 50.5213 197.258 50.3809C198.47 50.2247 199.652 49.8937 200.768 49.3982C201.611 49.1174 202.453 48.4155 203.295 47.9943L204.138 47.152C204.419 47.9943 205.121 48.5559 205.963 48.4155L210.596 47.7136C211.579 47.7136 212.14 46.8713 212 45.8886L209.192 24.8309C208.631 22.7251 208.209 20.9001 207.507 19.4963ZM194.591 41.5367C194.029 41.1155 193.608 40.1328 193.468 38.729C193.327 37.6059 193.468 36.7636 193.889 36.202C194.45 35.5001 195.152 34.7982 195.995 34.377C196.837 33.9559 198.241 33.5347 199.785 33.254L202.032 32.552L202.874 38.5886C202.185 39.3947 201.434 40.1457 200.628 40.8347C198.803 42.2386 195.995 42.5193 194.591 41.5367ZM153.174 29.8847L162.44 20.479C162.861 20.0578 163.001 19.777 163.001 19.2155C163.001 18.7943 162.721 18.5136 162.299 18.0924L159.07 15.2847C158.368 14.5828 157.526 14.5828 156.824 15.2847L147.558 25.1117L148.4 10.5117C148.4 9.52896 147.838 8.82704 146.996 8.68665L142.223 8.40588C141.24 8.40588 140.538 8.96742 140.397 9.95012L138.291 47.0117C138.291 47.9943 138.853 48.6963 139.836 48.8367L144.469 49.1174C145.452 49.1174 146.154 48.5559 146.294 47.5732L146.996 35.2193L155.42 48.977C155.56 49.3982 156.122 49.679 156.683 49.8193L162.861 50.2405C163.423 50.2405 163.984 49.9597 164.265 49.3982C164.686 48.6963 164.686 48.1347 164.265 47.5732L153.314 29.8847H153.174Z" fill="#575656"/>
<path d="M32.5723 69.052L32.7127 66.3847V55.5751H34.8186V61.0501C35.2398 60.2078 36.2226 59.6462 37.3458 59.6462C39.4517 59.6462 40.8557 61.4712 40.8557 64.2789C40.8557 67.6481 38.8901 69.1924 37.065 69.1924C36.5329 69.2362 35.9993 69.1274 35.5268 68.8787C35.0544 68.6301 34.6626 68.2519 34.3974 67.7885V69.1924H32.5723V69.052ZM34.8186 65.2616V65.8231C34.959 66.8058 35.661 67.5078 36.6438 67.5078C38.0478 67.5078 38.7497 66.2443 38.7497 64.4193C38.7497 62.7347 38.0478 61.3308 36.6438 61.3308C35.8014 61.3308 34.959 62.0327 34.8186 63.0154L34.6782 63.7174V65.1212L34.8186 65.2616ZM52.2279 57.1193C52.2279 57.8212 51.8067 58.5231 51.1047 58.5231C50.4027 58.5231 49.8411 57.8212 49.8411 57.1193C49.8411 56.4174 50.4027 55.7154 51.1047 55.7154C51.8067 55.8558 52.2279 56.4174 52.2279 57.1193ZM49.9815 69.052V59.7866H52.2279V69.052H49.9815ZM69.6372 64.2789C69.6372 67.6481 67.3908 69.1924 65.2848 69.1924C62.8981 69.1924 61.0729 67.3674 61.0729 64.4193C61.0729 61.3308 62.8981 59.5058 65.2848 59.5058C67.9524 59.5058 69.4968 61.3308 69.4968 64.2789H69.6372ZM63.3193 64.2789C63.3193 66.1039 64.1617 67.5078 65.4252 67.5078C66.5484 67.5078 67.3908 66.1039 67.3908 64.2789C67.3908 62.8751 66.8292 61.1904 65.4252 61.1904C64.0213 61.1904 63.3193 62.8751 63.3193 64.4193V64.2789ZM89.4332 62.4539V59.6462H91.118V61.0501C91.3726 60.537 91.7781 60.1141 92.28 59.8381C92.7819 59.5621 93.3562 59.4461 93.9259 59.5058C94.9087 59.5058 95.7511 60.2077 96.1723 61.1904C96.3127 60.6289 96.7338 60.2078 97.155 59.927C97.7166 59.6462 98.1378 59.3654 98.8398 59.3654C100.244 59.3654 101.648 60.4885 101.648 63.4366V68.9116H99.5418V63.577C99.5418 62.1731 99.1206 61.1904 98.1378 61.1904C97.4358 61.1904 97.0146 61.752 96.7339 62.3135L96.5935 63.1558V68.7712H94.6279V63.577C94.6279 62.1731 94.0663 61.3308 93.2239 61.3308C92.2411 61.3308 91.8199 62.0328 91.5391 62.7347V68.9116H89.4332V62.4539ZM116.109 69.052L115.828 67.9289C115.407 68.6308 114.424 69.1924 113.441 69.1924C111.756 69.1924 110.774 67.7885 110.774 66.3847C110.774 63.9981 112.739 62.8751 115.687 62.8751C115.687 62.1731 115.407 61.1904 114.003 61.1904C113.16 61.1904 112.318 61.3308 111.756 61.8924L111.335 60.3481C111.897 59.7866 113.02 59.5058 114.284 59.5058C117.091 59.5058 117.793 61.3308 117.793 63.4366V69.052H115.968H116.109ZM115.687 64.4193C114.284 64.4193 112.88 64.8404 112.88 66.2443C112.88 67.227 113.301 67.6481 114.003 67.6481C114.845 67.6481 115.407 66.9462 115.687 66.2443V64.4193ZM127.2 62.7347V59.7866H128.885V61.4712H129.166C129.446 60.0674 130.57 59.5058 131.412 59.5058H131.833V61.6116H131.272C130.289 61.6116 129.587 62.1731 129.306 63.2962V68.7712H127.06V62.7347H127.2ZM142.644 63.7174L143.346 62.7347L145.452 59.7866H147.979L144.89 63.577L148.4 69.052H145.733L143.346 64.8404L142.644 65.9635V69.052H140.538V55.4347H142.644V63.8578V63.7174ZM158.087 64.9808C158.087 66.6654 159.211 67.3674 160.615 67.3674C161.448 67.421 162.279 67.2255 163.001 66.8058L163.282 68.4904C162.58 68.9116 161.597 69.1924 160.474 69.1924C157.666 69.1924 156.262 67.3674 156.262 64.4193C156.262 61.8924 157.666 59.5058 160.193 59.5058C163.001 59.5058 163.844 62.0327 163.844 63.9981L163.703 64.9808H158.087ZM161.597 63.4366C161.597 62.5943 161.317 61.1904 159.913 61.1904C158.509 61.1904 157.947 62.4539 157.947 63.4366H161.597ZM175.076 57.1193V59.7866H177.182V61.4712H175.076V65.6828C175.076 66.6654 175.356 67.227 176.199 67.227H177.041V68.9116L175.497 69.1924C174.795 69.1924 174.093 68.9116 173.672 68.4904C173.25 67.9289 173.11 67.0866 173.11 65.6828V61.4712H171.846V59.6462H173.11V57.5404L175.076 57.1193ZM60.6517 12.7578C61.2133 9.24813 60.2305 5.73852 57.7034 3.35198C56.366 2.21352 54.7801 1.40456 53.0733 0.990079C51.3665 0.575603 49.5862 0.567164 47.8756 0.965441C47.1736 4.33467 48.1564 7.84429 50.6835 10.2308C53.2107 12.7577 56.861 13.4597 60.5113 12.7578H60.6517ZM61.7749 12.7578C61.2133 9.24813 62.1961 5.73852 64.7233 3.35198C66.0607 2.21352 67.6465 1.40456 69.3533 0.990079C71.0602 0.575603 72.8404 0.567164 74.5511 0.965441C75.2531 4.33467 74.2703 7.84429 71.7431 10.2308C70.4182 11.3937 68.8382 12.2283 67.1309 12.6673C65.4235 13.1063 63.6368 13.1373 61.9153 12.7578H61.7749Z" fill="#93C01C"/>
</svg>
